<svg width="39" height="30" viewBox="0 0 39 30" fill="none" xmlns="http://www.w3.org/2000/svg">
<path d="M20.3347 8.55139V14.0185C19.3511 12.2453 17.8764 10.7851 16.0904 9.81908C14.5948 9.01033 12.8794 8.55139 11.0565 8.55139C10.9875 8.55139 10.9169 8.55139 10.8479 8.5546C5.34068 8.66051 0.860432 12.9691 0.483334 18.4073C0.465683 18.6528 0.456055 18.9015 0.456055 19.1535C0.456055 20.3698 0.661453 21.5396 1.03855 22.6276C1.69486 24.5227 2.87269 26.1739 4.40355 27.4079C6.22164 28.8778 8.53879 29.7571 11.0581 29.7571C14.038 29.7571 16.7306 28.528 18.6562 26.5478C19.3094 25.877 19.8774 25.1164 20.3347 24.29V29.7571H25.6366V8.55139H20.3347ZM11.0581 13.8532C13.985 13.8532 16.36 16.2265 16.36 19.1551C16.36 19.3749 16.3471 19.5931 16.3198 19.805C16.0005 22.4254 13.7668 24.4569 11.0581 24.4569C8.51793 24.4569 6.39495 22.6693 5.87824 20.2832C5.79801 19.9189 5.75789 19.5418 5.75789 19.1551C5.75789 16.2281 8.1312 13.8532 11.0597 13.8532H11.0581Z" fill="url(#paint0_linear_5646_523)"/>
<path d="M32.2638 8.55139H26.9619V29.7555H32.2638V8.55139Z" fill="url(#paint1_linear_5646_523)"/>
<path d="M29.6114 6.09627C31.0754 6.09627 32.2623 4.90941 32.2623 3.44535C32.2623 1.98129 31.0754 0.794434 29.6114 0.794434C28.1473 0.794434 26.9604 1.98129 26.9604 3.44535C26.9604 4.90941 28.1473 6.09627 29.6114 6.09627Z" fill="url(#paint2_linear_5646_523)"/>
<path d="M38.267 24.6848H33.3037V29.6481H38.267V24.6848Z" fill="url(#paint3_linear_5646_523)"/>
<path d="M25.6367 23.2374V29.7555H25.457C24.8921 29.4603 24.3257 29.1666 23.7608 28.8746C22.7836 28.3707 21.8015 27.8781 20.8018 27.4191C20.6478 27.3485 20.4921 27.2795 20.3365 27.2121V24.2884C19.8791 25.1148 19.3111 25.8738 18.658 26.5462C18.5104 26.4932 18.3627 26.4419 18.2167 26.3921C17.1753 26.0391 16.1146 25.7487 15.033 25.5449C14.8597 25.5128 14.6848 25.4839 14.5115 25.4534C14.4955 25.4502 14.4297 25.4406 14.3655 25.4293C14.3109 25.4213 14.258 25.4149 14.2451 25.4133C14.1135 25.4005 13.982 25.386 13.8504 25.3732C13.3224 25.3234 12.7945 25.2946 12.2666 25.2865C11.6953 25.2785 11.124 25.2946 10.5528 25.3363C10.349 25.3507 10.1468 25.3732 9.943 25.3956H9.95103C9.86919 25.4085 9.62688 25.439 9.50814 25.4598C8.42338 25.6524 7.41083 25.9926 6.3694 26.3376C6.29719 26.3697 6.22658 26.4018 6.15598 26.4355C5.95539 26.5301 5.75642 26.628 5.56065 26.7307C5.1659 26.9377 4.77917 27.164 4.40528 27.4063C2.87603 26.1723 1.69659 24.5211 1.04028 22.626C2.1106 21.9023 3.26596 21.2877 4.49193 20.7822C4.94766 20.5945 5.40981 20.4276 5.87837 20.28C6.39507 22.6661 8.51806 24.4537 11.0583 24.4537C13.7669 24.4537 16.0006 22.4238 16.32 19.8018C17.0244 19.9333 17.7176 20.0938 18.3996 20.2816C20.927 20.9812 23.3019 22.0611 25.6367 23.2358V23.2374Z" fill="url(#paint4_linear_5646_523)"/>
<path d="M30.9625 25.9637C31.3942 26.1755 31.8274 26.3841 32.2623 26.5831V29.7572H26.9604V23.9146C28.2939 24.603 29.621 25.3042 30.9609 25.9637H30.9625Z" fill="url(#paint5_linear_5646_523)"/>
<path d="M25.6366 12.1026V19.2161C23.5875 18.0367 21.6891 16.6086 20.0074 14.9124C18.4782 13.3687 17.2426 11.6277 16.092 9.82079C17.8764 10.7868 19.3527 12.2471 20.3364 14.0202V8.5531H22.2732C22.3775 8.70073 22.4851 8.84515 22.5958 8.98636C22.7033 9.11153 23.029 9.50467 23.1061 9.59614C23.3997 9.93633 23.7046 10.2669 24.0159 10.5878C24.5326 11.119 25.0734 11.6228 25.6366 12.1026Z" fill="url(#paint6_linear_5646_523)"/>
<path d="M32.2623 15.8495V22.0082C31.2497 21.7306 30.2532 21.3936 29.2856 20.9972C28.4945 20.6731 27.7195 20.3185 26.9604 19.9333V13.1167C27.1033 13.2146 27.2477 13.3109 27.3921 13.4071C28.1415 13.9014 28.9198 14.3555 29.7189 14.7663C30.0527 14.9364 30.3896 15.1001 30.7298 15.2573C30.7635 15.2718 30.8454 15.3119 30.9288 15.352C31.1085 15.4322 31.2947 15.4996 31.4776 15.5686C31.7376 15.6665 31.9975 15.7612 32.2607 15.8511L32.2623 15.8495Z" fill="url(#paint7_linear_5646_523)"/>
<path d="M10.8496 8.55481C10.6795 9.93001 10.2254 11.2779 9.56103 12.459C7.67073 15.8192 4.17414 17.7143 0.483398 18.4075C0.862101 12.9693 5.34074 8.66072 10.8496 8.55481Z" fill="url(#paint8_linear_5646_523)"/>
<defs>
<linearGradient id="paint0_linear_5646_523" x1="19.0863" y1="36.5786" x2="10.7629" y2="6.2535" gradientUnits="userSpaceOnUse">
<stop stop-color="#A672FF"/>
<stop offset="1" stop-color="#FFA2FF"/>
</linearGradient>
<linearGradient id="paint1_linear_5646_523" x1="33.3212" y1="32.6712" x2="24.9994" y2="2.34612" gradientUnits="userSpaceOnUse">
<stop stop-color="#A672FF"/>
<stop offset="1" stop-color="#FFA2FF"/>
</linearGradient>
<linearGradient id="paint2_linear_5646_523" x1="31.2385" y1="10.0919" x2="27.3985" y2="-5.605" gradientUnits="userSpaceOnUse">
<stop stop-color="#A672FF"/>
<stop offset="1" stop-color="#FFA2FF"/>
</linearGradient>
<linearGradient id="paint3_linear_5646_523" x1="37.5352" y1="35.7153" x2="31.9927" y2="8.64451" gradientUnits="userSpaceOnUse">
<stop stop-color="#A672FF"/>
<stop offset="1" stop-color="#FFA2FF"/>
</linearGradient>
<linearGradient id="paint4_linear_5646_523" x1="15.0924" y1="35.6254" x2="8.25329" y2="-13.8514" gradientUnits="userSpaceOnUse">
<stop stop-color="#A672FF"/>
<stop offset="1" stop-color="#FFA2FF"/>
</linearGradient>
<linearGradient id="paint5_linear_5646_523" x1="30.3511" y1="33.5169" x2="23.5104" y2="-15.96" gradientUnits="userSpaceOnUse">
<stop stop-color="#A672FF"/>
<stop offset="1" stop-color="#FFA2FF"/>
</linearGradient>
<linearGradient id="paint6_linear_5646_523" x1="24.101" y1="34.3803" x2="17.2618" y2="-15.0966" gradientUnits="userSpaceOnUse">
<stop stop-color="#A672FF"/>
<stop offset="1" stop-color="#FFA2FF"/>
</linearGradient>
<linearGradient id="paint7_linear_5646_523" x1="31.7456" y1="33.3243" x2="24.9049" y2="-16.1541" gradientUnits="userSpaceOnUse">
<stop stop-color="#A672FF"/>
<stop offset="1" stop-color="#FFA2FF"/>
</linearGradient>
<linearGradient id="paint8_linear_5646_523" x1="8.84695" y1="36.4889" x2="2.00623" y2="-12.9879" gradientUnits="userSpaceOnUse">
<stop stop-color="#A672FF"/>
<stop offset="1" stop-color="#FFA2FF"/>
</linearGradient>
</defs>
</svg>
