<svg width="47" height="49" viewBox="0 0 47 49" fill="none" xmlns="http://www.w3.org/2000/svg">
<g filter="url(#filter0_d_5741_2)">
<path d="M23.5 46C35.9264 46 46 35.9264 46 23.5C46 11.0736 35.9264 1 23.5 1C11.0736 1 1 11.0736 1 23.5C1 35.9264 11.0736 46 23.5 46Z" fill="#DDDDDD"/>
</g>
<path d="M36.5952 35.5795C36.6005 34.9965 36.5723 34.4215 36.571 33.8479C36.567 30.7945 36.6005 27.741 36.5602 24.6889C36.5226 21.853 35.2437 19.6916 32.7921 18.2595C31.7403 17.6456 30.5729 17.3568 29.3558 17.3528C25.46 17.3407 21.5629 17.3286 17.6672 17.3555C15.683 17.3689 13.9568 18.0997 12.5597 19.5142C11.9686 20.112 11.5011 20.8066 11.1384 21.5897C10.6615 22.6201 10.4345 23.6814 10.4332 24.8017C10.4291 28.3106 10.4332 31.8195 10.4318 35.327C10.4318 35.3982 10.4788 35.5016 10.3955 35.5365C10.2948 35.5782 10.2424 35.468 10.1981 35.4035C9.68356 34.666 9.31011 33.86 8.98232 33.0218C8.51752 31.8329 8.40334 30.601 8.39393 29.3463C8.38721 28.4449 8.39259 27.5435 8.39393 26.6421C8.39393 24.5129 8.38587 22.385 8.40065 20.2558C8.40871 19.1596 8.53767 18.0701 8.96217 17.0519C9.65535 15.3928 10.6427 13.9366 12.0667 12.8041C12.9788 12.0801 13.9823 11.5239 15.0852 11.1478C16.0726 10.8106 17.0909 10.6279 18.1306 10.6239C21.7752 10.6131 25.4184 10.6091 29.0629 10.6319C30.01 10.6386 30.9356 10.8375 31.8477 11.1276C32.69 11.395 33.4745 11.7778 34.2013 12.248C34.8286 12.6537 35.4049 13.1548 35.9235 13.7096C36.8867 14.7399 37.5758 15.9342 38.0702 17.2453C38.4396 18.2246 38.6022 19.2469 38.6048 20.2894C38.6142 23.4678 38.6129 26.6475 38.6048 29.8272C38.6035 30.6897 38.4571 31.5306 38.2287 32.3689C38.0487 33.0312 37.8055 33.6639 37.4885 34.259C37.2427 34.7211 36.9686 35.1805 36.5938 35.5768L36.5952 35.5795Z" fill="#3E52FD"/>
<path d="M23.4895 37.694C21.6383 37.694 19.7872 37.6859 17.936 37.698C17.2254 37.7034 16.5295 37.6241 15.8646 37.389C15.3299 37.201 14.8732 36.8597 14.4352 36.5051C13.6547 35.8737 13.1456 35.0596 12.9038 34.0911C12.8017 33.6813 12.7614 33.2528 12.7614 32.827C12.7601 30.065 12.7668 27.3017 12.7574 24.5398C12.7533 23.461 13.0623 22.4656 13.7004 21.6327C14.4393 20.6682 15.428 20.0073 16.6612 19.7681C17.2281 19.658 17.7936 19.6392 18.3659 19.6392C21.9621 19.6392 25.5569 19.6311 29.1531 19.6432C30.9949 19.6499 32.4726 20.3888 33.4962 21.9457C34.0228 22.7464 34.2673 23.6491 34.2713 24.6029C34.2834 27.3165 34.2942 30.0301 34.2686 32.7437C34.2525 34.4 33.5795 35.7582 32.2442 36.7657C31.375 37.4226 30.381 37.6913 29.3049 37.6926C27.3664 37.694 25.428 37.6926 23.4895 37.6926V37.694ZM23.5056 31.9954C25.1633 31.9954 26.8197 31.9847 28.4774 32.0008C29.2055 32.0075 29.8812 31.8463 30.4898 31.4594C31.3119 30.9382 31.8439 30.2047 32.0508 29.2388C32.2173 28.4597 32.1542 27.6752 32.126 26.8933C32.1058 26.3305 31.9191 25.7985 31.6061 25.3203C30.8578 24.173 29.7791 23.6625 28.4304 23.6625C25.1539 23.6625 21.8788 23.6639 18.6023 23.6625C17.8836 23.6625 17.1945 23.7915 16.5725 24.1542C15.7181 24.6539 15.0854 25.3431 14.9269 26.36C14.7993 27.1781 14.8772 28.0016 14.9081 28.8224C14.9135 28.9769 14.9282 29.1341 14.9632 29.2832C15.338 30.8616 16.766 31.9914 18.3861 31.9941C20.0921 31.9968 21.7982 31.9941 23.5029 31.9941L23.5056 31.9954Z" fill="#3E52FD"/>
<path d="M23.5056 31.9954C21.7995 31.9954 20.0934 31.9968 18.3887 31.9954C16.7686 31.9927 15.3406 30.863 14.9658 29.2845C14.9309 29.1354 14.9161 28.9782 14.9107 28.8237C14.8798 28.003 14.8033 27.1781 14.9295 26.3614C15.0881 25.3431 15.7208 24.6539 16.5752 24.1556C17.1971 23.7929 17.8863 23.6625 18.605 23.6639C21.8815 23.6666 25.1566 23.6652 28.433 23.6639C29.7804 23.6639 30.8605 24.1744 31.6088 25.3216C31.9204 25.7998 32.1085 26.3318 32.1286 26.8947C32.1568 27.6765 32.22 28.461 32.0534 29.2402C31.8465 30.2047 31.3146 30.9395 30.4924 31.4608C29.8825 31.8477 29.2082 32.0089 28.4801 32.0021C26.8223 31.986 25.166 31.9968 23.5083 31.9968L23.5056 31.9954ZM18.8804 29.7399C19.9188 29.7843 20.8014 28.8869 20.8014 27.8458C20.8014 26.7845 19.9228 25.8966 18.8737 25.9019C17.8366 25.9073 16.9701 26.7872 16.9688 27.835C16.9674 28.9352 17.8876 29.7789 18.8804 29.7413V29.7399ZM28.12 29.7399C29.192 29.7399 30.0397 28.903 30.0424 27.8417C30.0451 26.7886 29.1571 25.8952 28.112 25.9006C27.0762 25.906 26.2111 26.7859 26.2098 27.8337C26.2098 28.9044 27.0453 29.7399 28.12 29.7386V29.7399Z" fill="#FEFEFE"/>
<path d="M18.8804 29.7399C17.8876 29.7775 16.9674 28.9339 16.9688 27.8337C16.9701 26.7859 17.8379 25.906 18.8736 25.9006C19.9228 25.8952 20.8014 26.7832 20.8014 27.8444C20.8014 28.8855 19.9188 29.7843 18.8804 29.7386V29.7399Z" fill="#3E52FD"/>
<path d="M28.1197 29.7399C27.0464 29.7399 26.2095 28.9057 26.2095 27.835C26.2095 26.7859 27.0759 25.9073 28.1117 25.9019C29.1568 25.8966 30.0448 26.7899 30.0421 27.8431C30.0394 28.9043 29.1917 29.7399 28.1197 29.7413V29.7399Z" fill="#3E52FD"/>
<path d="M32.4094 39.8979H36.0459V36.7343" fill="#3E52FD"/>
<path d="M24.7991 6.86915C24.7991 7.43337 24.4351 7.90892 23.9326 8.08893V14.036H23.0662V8.08893C22.5624 7.90892 22.1997 7.43337 22.1997 6.86915C22.1997 6.15314 22.7827 5.57012 23.4987 5.57012C24.2148 5.57012 24.7978 6.15314 24.7978 6.86915H24.7991Z" fill="#3E52FD"/>
<defs>
<filter id="filter0_d_5741_2" x="0" y="1" width="47" height="47" filterUnits="userSpaceOnUse" color-interpolation-filters="sRGB">
<feFlood flood-opacity="0" result="BackgroundImageFix"/>
<feColorMatrix in="SourceAlpha" type="matrix" values="0 0 0 0 0 0 0 0 0 0 0 0 0 0 0 0 0 0 127 0" result="hardAlpha"/>
<feOffset dy="1"/>
<feGaussianBlur stdDeviation="0.5"/>
<feComposite in2="hardAlpha" operator="out"/>
<feColorMatrix type="matrix" values="0 0 0 0 0 0 0 0 0 0 0 0 0 0 0 0 0 0 0.25 0"/>
<feBlend mode="normal" in2="BackgroundImageFix" result="effect1_dropShadow_5741_2"/>
<feBlend mode="normal" in="SourceGraphic" in2="effect1_dropShadow_5741_2" result="shape"/>
</filter>
</defs>
</svg>
