<svg width="467" height="467" viewBox="0 0 467 467" fill="none" xmlns="http://www.w3.org/2000/svg">
<circle cx="233.341" cy="233.341" r="233.099" fill="white"/>
<circle cx="233.341" cy="233.34" r="190.536" fill="#FFA2FF"/>
<path d="M120.235 378.405C125.671 377.899 129.591 373.781 133.837 370.84C138.371 367.702 143.296 365.89 148.036 363.23C156.033 358.741 158.068 346.12 145.487 347.413C135.237 348.471 120.626 355.686 114.301 363.906C112.205 366.632 110.463 370.14 111.521 373.414C112.596 376.741 116.389 378.64 119.881 378.43C120 378.422 120.116 378.413 120.235 378.401V378.405Z" fill="url(#paint0_linear_5667_1217)"/>
<path d="M305.46 382.449C301.152 382.754 295.02 379.529 291.57 377.796C287.003 375.498 282.736 372.648 278.519 369.774C274.463 367.01 271.605 361.435 274.393 356.732C278.433 349.916 288.703 353.561 294.551 355.599C301.7 358.091 310.665 362.402 313.519 370.004C315.331 374.835 311.447 381.242 306.382 382.321C306.086 382.383 305.777 382.428 305.46 382.449Z" fill="url(#paint1_linear_5667_1217)"/>
<path d="M272.022 330.413C272.022 330.413 293.102 366.051 297.936 405.423H129.99C134.829 366.047 155.905 330.413 155.905 330.413H272.022Z" fill="url(#paint2_linear_5667_1217)"/>
<path style="mix-blend-mode:multiply" d="M297.94 405.424C295.197 383.108 287.241 361.999 280.858 347.895C262.941 364.107 237.813 372.253 213.8 369.16C212.433 368.983 210.872 368.831 209.843 369.749C209.015 370.49 208.817 371.689 208.673 372.792C207.257 383.647 206.067 394.531 205.058 405.428H297.932L297.94 405.424Z" fill="url(#paint3_linear_5667_1217)"/>
<path d="M213.966 351.263C242.222 351.263 265.129 343.153 265.129 333.148C265.129 323.143 242.222 315.032 213.966 315.032C185.71 315.032 162.803 323.143 162.803 333.148C162.803 343.153 185.71 351.263 213.966 351.263Z" fill="url(#paint4_linear_5667_1217)"/>
<path d="M79.1052 216.854C68.6618 262.235 81.5595 318.368 134.229 330.422C164.872 337.435 196.754 337.291 228.174 335.487C252.347 334.099 276.952 331.632 299.099 322.083C376.119 288.867 354.026 186.097 297.695 143.718C263.301 117.844 214.272 107.796 172.226 118.623C159.86 121.806 148.165 127.126 137.478 134.073C108.327 153.021 86.6494 184.066 79.1011 216.854H79.1052Z" fill="url(#paint5_linear_5667_1217)"/>
<path style="mix-blend-mode:screen" d="M165.299 124.289C157.174 127.155 149.441 131.355 142.238 135.811C133.29 141.346 105.526 160.824 119.292 172.243C123.209 175.493 128.822 176.119 133.771 174.937C137.692 173.998 141.287 172.058 144.828 170.135C161.206 161.252 178.868 152.872 193.862 141.737C206.97 131.998 199.582 120.253 184.745 120.533C178.077 120.661 171.571 122.077 165.299 124.293V124.289Z" fill="url(#paint6_linear_5667_1217)"/>
<path d="M346.686 278.267C353.876 278.267 359.703 261.019 359.703 239.742C359.703 218.466 353.876 201.218 346.686 201.218C339.497 201.218 333.669 218.466 333.669 239.742C333.669 261.019 339.497 278.267 346.686 278.267Z" fill="url(#paint7_linear_5667_1217)"/>
<path d="M346.686 271.319C351.623 271.319 355.626 257.182 355.626 239.742C355.626 222.303 351.623 208.165 346.686 208.165C341.748 208.165 337.745 222.303 337.745 239.742C337.745 257.182 341.748 271.319 346.686 271.319Z" fill="url(#paint8_linear_5667_1217)"/>
<path d="M333.67 239.742C333.67 218.469 340.424 201.218 347.614 201.218L337.747 195.132C337.747 195.132 322.798 205.909 324.021 239.738C325.368 277.068 339.402 286.556 339.402 286.556L349.141 277.571C341.951 277.571 333.67 261.016 333.67 239.738V239.742Z" fill="url(#paint9_linear_5667_1217)"/>
<path d="M77.3089 278.267C84.498 278.267 90.326 261.019 90.326 239.742C90.326 218.466 84.498 201.218 77.3089 201.218C70.1197 201.218 64.2917 218.466 64.2917 239.742C64.2917 261.019 70.1197 278.267 77.3089 278.267Z" fill="url(#paint10_linear_5667_1217)"/>
<path d="M77.3082 271.319C82.2458 271.319 86.2485 257.182 86.2485 239.742C86.2485 222.303 82.2458 208.165 77.3082 208.165C72.3706 208.165 68.3679 222.303 68.3679 239.742C68.3679 257.182 72.3706 271.319 77.3082 271.319Z" fill="url(#paint11_linear_5667_1217)"/>
<path d="M90.3267 239.742C90.3267 218.469 83.5731 201.218 76.383 201.218L86.2498 195.132C86.2498 195.132 101.198 205.909 99.9753 239.738C98.6287 277.068 84.5944 286.556 84.5944 286.556L74.8552 277.571C82.0453 277.571 90.3267 261.016 90.3267 239.738V239.742Z" fill="url(#paint12_linear_5667_1217)"/>
<path d="M224.587 175.493C182.327 175.666 144.561 177.198 126.614 211.287C115.788 231.852 115.38 256.367 122.356 278.131C128.64 297.737 151.936 306.348 171.484 309.296C192.775 312.508 213.666 312.401 235.182 310.704C250.827 309.469 266.846 307.254 280.481 299.788C300.849 288.632 306.519 268.079 306.836 246.92C307.536 200.753 281.309 175.262 224.582 175.497L224.587 175.493Z" fill="url(#paint13_linear_5667_1217)"/>
<path d="M223.816 179.763C184.2 179.924 148.797 181.361 131.975 213.317C121.824 232.597 121.445 255.576 127.985 275.977C133.877 294.356 155.711 302.431 174.037 305.194C193.993 308.205 213.578 308.106 233.748 306.512C248.413 305.355 263.431 303.28 276.209 296.279C295.301 285.819 300.617 266.555 300.918 246.722C301.572 203.442 276.988 179.549 223.811 179.767L223.816 179.763Z" fill="url(#paint14_linear_5667_1217)"/>
<path d="M200.64 244.025C200.64 258.619 188.809 270.446 174.219 270.446C159.629 270.446 147.798 258.615 147.798 244.025C147.798 229.435 159.629 217.604 174.219 217.604C188.809 217.604 200.64 229.435 200.64 244.025ZM253.668 217.599C239.074 217.599 227.247 229.431 227.247 244.021C227.247 258.611 239.078 270.442 253.668 270.442C268.259 270.442 280.09 258.611 280.09 244.021C280.09 229.431 268.259 217.599 253.668 217.599Z" fill="#D0B000"/>
<path style="mix-blend-mode:screen" d="M205.784 275.593C223.218 258.158 223.218 229.892 205.784 212.457C188.349 195.023 160.083 195.023 142.648 212.457C125.214 229.892 125.214 258.158 142.648 275.593C160.083 293.027 188.349 293.027 205.784 275.593Z" fill="url(#paint15_radial_5667_1217)"/>
<path style="mix-blend-mode:screen" d="M285.236 274.755C302.67 257.32 302.67 229.054 285.236 211.619C267.801 194.185 239.534 194.185 222.1 211.619C204.665 229.054 204.665 257.32 222.1 274.755C239.534 292.189 267.801 292.189 285.236 274.755Z" fill="url(#paint16_radial_5667_1217)"/>
<path style="mix-blend-mode:screen" d="M346.282 229.888C344.379 206.835 336.3 192.558 328.237 197.998C320.173 203.442 315.182 226.54 317.085 249.597C318.987 272.65 327.067 286.927 335.13 281.487C343.193 276.043 348.184 252.945 346.282 229.888Z" fill="url(#paint17_radial_5667_1217)"/>
<path style="mix-blend-mode:screen" d="M108.967 229.888C107.065 206.835 98.985 192.558 90.9219 197.998C82.8587 203.442 77.8677 226.54 79.7702 249.597C81.6727 272.65 89.7523 286.927 97.8155 281.487C105.879 276.043 110.87 252.945 108.967 229.888Z" fill="url(#paint18_radial_5667_1217)"/>
<path d="M328.341 307.11C337.009 304.519 345.834 304.54 354.502 310.911C361.643 316.161 366.474 324.055 369.587 332.357C371.172 336.582 372.367 341.05 372.132 345.556C370.983 367.258 343.157 374.921 325.631 377.433C310.695 379.575 298.662 375.873 286.575 367.459C259.388 348.541 294.708 323.466 311.177 314.736C316.765 311.775 322.522 308.851 328.349 307.11H328.341Z" fill="url(#paint19_linear_5667_1217)"/>
<path d="M334.666 322.639C333.032 335.186 341.395 350.662 352.382 356.794C359.819 360.945 367.71 360.278 370.493 351.255C371.885 346.746 371.28 341.841 369.97 337.307C367.071 327.263 360.367 317.541 351.74 311.508C343.487 305.734 335.749 314.312 334.662 322.635L334.666 322.639Z" fill="url(#paint20_linear_5667_1217)"/>
<path style="mix-blend-mode:screen" d="M349.236 356.242C344.945 357.873 337.713 349.324 333.093 337.147C328.468 324.97 328.205 313.781 332.496 312.15C336.787 310.519 344.018 319.068 348.638 331.245C353.263 343.423 353.527 354.611 349.236 356.242Z" fill="url(#paint21_radial_5667_1217)"/>
<path d="M406.348 349.2C408.012 348.298 409.786 347.042 410.017 345.164C410.449 341.639 405.635 340.214 402.086 340.132C396.65 340.004 391.21 339.881 385.774 339.753C393.335 337.217 400.764 334.289 408.028 330.994C411.22 329.549 414.543 327.885 416.412 324.92C418.282 321.959 417.932 317.326 414.823 315.716C412.616 314.571 409.943 315.284 407.567 316.021C400.08 318.339 392.594 320.654 385.107 322.972C391.486 319.492 397.502 315.341 403.021 310.61C405.298 308.658 407.567 306.496 408.588 303.675C409.609 300.854 408.983 297.222 406.426 295.653C403.473 293.849 399.693 295.464 396.638 297.086C390.02 300.599 383.402 304.107 376.784 307.62C374.338 308.917 371.452 310.243 368.915 309.127C365.69 307.711 365.192 303.131 366.629 299.919C368.071 296.707 370.805 294.274 372.695 291.304C373.609 289.871 374.342 288.15 373.927 286.503C372.893 282.418 366.819 282.97 363.146 285.029C352.397 291.053 344.639 302.143 342.658 314.304C340.583 327.053 345.417 347.083 358.031 353.483C371.081 360.105 394.212 355.781 406.352 349.204L406.348 349.2Z" fill="url(#paint22_linear_5667_1217)"/>
<path d="M122.322 322.919C118.822 314.576 113.205 307.773 102.778 305.117C94.1877 302.93 85.021 304.215 76.6325 307.077C72.3621 308.534 68.1494 310.445 64.822 313.488C48.7822 328.153 60.5269 354.517 69.7101 369.654C77.5385 382.556 88.0395 389.499 102.21 393.502C134.087 402.496 131.04 359.289 127.33 341.026C126.07 334.828 124.674 328.523 122.322 322.919Z" fill="url(#paint23_linear_5667_1217)"/>
<path d="M106.308 327.889C97.6516 337.122 80.3847 340.478 68.6689 335.882C60.7416 332.769 56.2488 326.254 61.4499 318.372C64.0525 314.436 68.2241 311.792 72.5563 309.922C82.1555 305.788 93.9248 304.795 104.063 307.628C113.766 310.342 112.048 321.762 106.304 327.889H106.308Z" fill="url(#paint24_linear_5667_1217)"/>
<path style="mix-blend-mode:screen" d="M71.0985 337.966C72.5645 342.319 83.7574 342.475 96.0991 338.316C108.441 334.157 117.258 327.259 115.792 322.91C114.326 318.558 103.133 318.401 90.791 322.56C78.4492 326.72 69.6325 333.617 71.0985 337.966Z" fill="url(#paint25_radial_5667_1217)"/>
<path d="M51.4514 294.467C51.855 293.598 52.308 292.734 52.8227 291.865C57.3032 284.283 65.5804 279.082 74.3519 278.329C75.6449 270.076 79.0094 262.157 84.0416 255.49C85.5653 253.476 87.5296 251.421 90.054 251.302C92.6977 251.178 95.0121 253.353 95.9345 255.832C96.8528 258.315 96.6922 261.049 96.5193 263.689C96.1322 269.602 95.741 275.516 95.3539 281.425C95.1562 284.456 94.9833 287.648 96.3134 290.378C97.6435 293.108 101.029 295.089 103.779 293.804C106.048 292.742 106.979 290.003 107.201 287.508C107.424 285.016 107.193 282.414 108.124 280.091C109.055 277.764 111.752 275.858 114.025 276.908C115.038 277.377 115.742 278.329 116.323 279.284C123.352 290.827 115.788 307.213 107.683 316.42C99.1507 326.118 80.6072 335.096 67.6559 329.413C53.2675 323.1 44.7431 308.946 51.4555 294.467H51.4514Z" fill="url(#paint26_linear_5667_1217)"/>
<path d="M86.5455 287.125C89.2676 291.971 90.2106 297.885 88.4028 303.045C87.0191 306.994 84.2888 310.297 81.6121 313.513C78.9519 316.704 75.9951 320.085 71.9388 320.983C64.0281 322.733 51.0233 314.769 49.4955 306.817C48.5731 302.011 49.8579 297.02 51.9293 292.589C55.1166 285.782 60.6595 279.605 67.9608 277.814C75.818 275.882 82.831 280.519 86.5455 287.129V287.125Z" fill="url(#paint27_linear_5667_1217)"/>
<path style="mix-blend-mode:screen" d="M141.533 385.056C140.825 387.926 140.372 391.459 142.608 393.391C143.79 394.412 145.429 394.671 146.977 394.894C149.769 395.293 152.681 395.68 155.366 394.816C160.415 393.189 163.079 387.778 164.911 382.803C167.201 376.601 169.067 370.243 170.495 363.79C171.047 361.307 171.525 358.671 170.706 356.258C168.053 348.479 156.544 346.96 152.487 352.589C146.496 360.903 143.955 375.222 141.529 385.052L141.533 385.056Z" fill="url(#paint28_linear_5667_1217)"/>
<path d="M184.699 288.117H243.233C243.233 288.117 213.377 317.446 184.699 288.117Z" fill="#F6EC5A"/>
<defs>
<linearGradient id="paint0_linear_5667_1217" x1="157.728" y1="337.329" x2="102.76" y2="392.035" gradientUnits="userSpaceOnUse">
<stop stop-color="#27213B"/>
<stop offset="1" stop-color="#433B51"/>
</linearGradient>
<linearGradient id="paint1_linear_5667_1217" x1="267.35" y1="347.869" x2="325.449" y2="389.022" gradientUnits="userSpaceOnUse">
<stop stop-color="#27213B"/>
<stop offset="1" stop-color="#433B51"/>
</linearGradient>
<linearGradient id="paint2_linear_5667_1217" x1="322.422" y1="367.92" x2="127.182" y2="367.92" gradientUnits="userSpaceOnUse">
<stop stop-color="#8B9AC4"/>
<stop offset="1" stop-color="#E8EAF6"/>
</linearGradient>
<linearGradient id="paint3_linear_5667_1217" x1="426.481" y1="312.01" x2="185.427" y2="417.473" gradientUnits="userSpaceOnUse">
<stop stop-color="#9199AD"/>
<stop offset="1" stop-color="white"/>
</linearGradient>
<linearGradient id="paint4_linear_5667_1217" x1="265.129" y1="333.148" x2="162.803" y2="333.148" gradientUnits="userSpaceOnUse">
<stop stop-color="#27213B"/>
<stop offset="1" stop-color="#433B51"/>
</linearGradient>
<linearGradient id="paint5_linear_5667_1217" x1="228.985" y1="332.691" x2="191.318" y2="137.771" gradientUnits="userSpaceOnUse">
<stop stop-color="#8B9AC4"/>
<stop offset="1" stop-color="#E8EAF6"/>
</linearGradient>
<linearGradient id="paint6_linear_5667_1217" x1="160.638" y1="83.6891" x2="155.568" y2="211.904" gradientUnits="userSpaceOnUse">
<stop stop-color="white"/>
<stop offset="0.09" stop-color="#F2F2F2"/>
<stop offset="0.25" stop-color="#D1D1D1"/>
<stop offset="0.47" stop-color="#9B9B9B"/>
<stop offset="0.73" stop-color="#515151"/>
<stop offset="1"/>
</linearGradient>
<linearGradient id="paint7_linear_5667_1217" x1="346.686" y1="214.202" x2="346.686" y2="295.015" gradientUnits="userSpaceOnUse">
<stop stop-color="#8B9AC4"/>
<stop offset="1" stop-color="#E8EAF6"/>
</linearGradient>
<linearGradient id="paint8_linear_5667_1217" x1="346.686" y1="271.698" x2="346.686" y2="203.046" gradientUnits="userSpaceOnUse">
<stop stop-color="#27213B"/>
<stop offset="1" stop-color="#433B51"/>
</linearGradient>
<linearGradient id="paint9_linear_5667_1217" x1="336.548" y1="285.35" x2="336.548" y2="187.517" gradientUnits="userSpaceOnUse">
<stop stop-color="#F9CC23"/>
<stop offset="0.27" stop-color="#F9D027"/>
<stop offset="0.32" stop-color="#F9D229"/>
<stop offset="0.59" stop-color="#F9DD21"/>
<stop offset="1" stop-color="#F9EA1A"/>
</linearGradient>
<linearGradient id="paint10_linear_5667_1217" x1="77.3089" y1="214.202" x2="77.3089" y2="295.015" gradientUnits="userSpaceOnUse">
<stop stop-color="#8B9AC4"/>
<stop offset="1" stop-color="#E8EAF6"/>
</linearGradient>
<linearGradient id="paint11_linear_5667_1217" x1="77.3082" y1="271.698" x2="77.3082" y2="203.046" gradientUnits="userSpaceOnUse">
<stop stop-color="#27213B"/>
<stop offset="1" stop-color="#433B51"/>
</linearGradient>
<linearGradient id="paint12_linear_5667_1217" x1="87.4523" y1="285.35" x2="87.4523" y2="187.517" gradientUnits="userSpaceOnUse">
<stop stop-color="#F9CC23"/>
<stop offset="0.27" stop-color="#F9D027"/>
<stop offset="0.32" stop-color="#F9D229"/>
<stop offset="1" stop-color="#F9D930"/>
</linearGradient>
<linearGradient id="paint13_linear_5667_1217" x1="212.274" y1="160.058" x2="212.274" y2="310.017" gradientUnits="userSpaceOnUse">
<stop stop-color="#8B9AC4"/>
<stop offset="1" stop-color="#E8EAF6"/>
</linearGradient>
<linearGradient id="paint14_linear_5667_1217" x1="225.179" y1="297.304" x2="200.701" y2="201.024" gradientUnits="userSpaceOnUse">
<stop stop-color="#27213B"/>
<stop offset="1" stop-color="#433B51"/>
</linearGradient>
<radialGradient id="paint15_radial_5667_1217" cx="0" cy="0" r="1" gradientUnits="userSpaceOnUse" gradientTransform="translate(174.215 244.024) scale(44.6437)">
<stop offset="0.58" stop-color="#CEC25A"/>
<stop offset="0.59" stop-color="#CBC059"/>
<stop offset="0.63" stop-color="#9C9344"/>
<stop offset="0.67" stop-color="#726C32"/>
<stop offset="0.71" stop-color="#4F4A22"/>
<stop offset="0.76" stop-color="#322F16"/>
<stop offset="0.8" stop-color="#1C1A0C"/>
<stop offset="0.86" stop-color="#0C0B05"/>
<stop offset="0.92" stop-color="#020201"/>
<stop offset="1"/>
</radialGradient>
<radialGradient id="paint16_radial_5667_1217" cx="0" cy="0" r="1" gradientUnits="userSpaceOnUse" gradientTransform="translate(253.666 243.188) scale(44.6437)">
<stop offset="0.58" stop-color="#CEC25A"/>
<stop offset="0.59" stop-color="#CBC059"/>
<stop offset="0.63" stop-color="#9C9344"/>
<stop offset="0.67" stop-color="#726C32"/>
<stop offset="0.71" stop-color="#4F4A22"/>
<stop offset="0.76" stop-color="#322F16"/>
<stop offset="0.8" stop-color="#1C1A0C"/>
<stop offset="0.86" stop-color="#0C0B05"/>
<stop offset="0.92" stop-color="#020201"/>
<stop offset="1"/>
</radialGradient>
<radialGradient id="paint17_radial_5667_1217" cx="0" cy="0" r="1" gradientUnits="userSpaceOnUse" gradientTransform="translate(328.235 239.209) scale(14.9065 42.7319)">
<stop offset="0.17" stop-color="#8EE2EC"/>
<stop offset="0.75" stop-color="#284043"/>
<stop offset="1"/>
</radialGradient>
<radialGradient id="paint18_radial_5667_1217" cx="0" cy="0" r="1" gradientUnits="userSpaceOnUse" gradientTransform="translate(92.4402 102.556) scale(14.9065 42.7319)">
<stop offset="0.17" stop-color="#8EE2EC"/>
<stop offset="0.75" stop-color="#284043"/>
<stop offset="1"/>
</radialGradient>
<linearGradient id="paint19_linear_5667_1217" x1="316.136" y1="391.352" x2="334.464" y2="295.917" gradientUnits="userSpaceOnUse">
<stop stop-color="#8B9AC4"/>
<stop offset="1" stop-color="#E8EAF6"/>
</linearGradient>
<linearGradient id="paint20_linear_5667_1217" x1="362.66" y1="366.377" x2="341.578" y2="300.906" gradientUnits="userSpaceOnUse">
<stop stop-color="#F9CC23"/>
<stop offset="0.27" stop-color="#F9D027"/>
<stop offset="0.32" stop-color="#F9D229"/>
<stop offset="0.59" stop-color="#F9DD21"/>
<stop offset="1" stop-color="#F9EA1A"/>
</linearGradient>
<radialGradient id="paint21_radial_5667_1217" cx="0" cy="0" r="1" gradientUnits="userSpaceOnUse" gradientTransform="translate(340.325 334.131) rotate(69.21) scale(23.6043 8.28221)">
<stop offset="0.17" stop-color="#8EE2EC"/>
<stop offset="0.64" stop-color="#284043"/>
<stop offset="0.85"/>
</radialGradient>
<linearGradient id="paint22_linear_5667_1217" x1="363.512" y1="357.801" x2="394.582" y2="286.483" gradientUnits="userSpaceOnUse">
<stop stop-color="#27213B"/>
<stop offset="1" stop-color="#433B51"/>
</linearGradient>
<linearGradient id="paint23_linear_5667_1217" x1="121.639" y1="340.729" x2="54.4692" y2="366.467" gradientUnits="userSpaceOnUse">
<stop stop-color="#8B9AC4"/>
<stop offset="1" stop-color="#E8EAF6"/>
</linearGradient>
<linearGradient id="paint24_linear_5667_1217" x1="54.7597" y1="334.121" x2="118.737" y2="308.856" gradientUnits="userSpaceOnUse">
<stop stop-color="#F9CC23"/>
<stop offset="0.27" stop-color="#F9D027"/>
<stop offset="0.32" stop-color="#F9D229"/>
<stop offset="0.59" stop-color="#F9DD21"/>
<stop offset="1" stop-color="#F9EA1A"/>
</linearGradient>
<radialGradient id="paint25_radial_5667_1217" cx="0" cy="0" r="1" gradientUnits="userSpaceOnUse" gradientTransform="translate(94.1156 328.347) rotate(161.38) scale(23.5949 8.27891)">
<stop offset="0.17" stop-color="#8EE2EC"/>
<stop offset="0.64" stop-color="#284043"/>
<stop offset="0.85"/>
</radialGradient>
<linearGradient id="paint26_linear_5667_1217" x1="83.3827" y1="301.073" x2="90.9187" y2="263.405" gradientUnits="userSpaceOnUse">
<stop stop-color="#27213B"/>
<stop offset="1" stop-color="#433B51"/>
</linearGradient>
<linearGradient id="paint27_linear_5667_1217" x1="69.2621" y1="323.017" x2="69.2621" y2="294.768" gradientUnits="userSpaceOnUse">
<stop stop-color="#27213B"/>
<stop offset="1" stop-color="#433B51"/>
</linearGradient>
<linearGradient id="paint28_linear_5667_1217" x1="133.112" y1="343.023" x2="183.331" y2="410.192" gradientUnits="userSpaceOnUse">
<stop stop-color="white"/>
<stop offset="0.09" stop-color="#F2F2F2"/>
<stop offset="0.25" stop-color="#D1D1D1"/>
<stop offset="0.47" stop-color="#9B9B9B"/>
<stop offset="0.73" stop-color="#515151"/>
<stop offset="1"/>
</linearGradient>
</defs>
</svg>
