<svg width="30" height="30" viewBox="0 0 30 30" fill="none" xmlns="http://www.w3.org/2000/svg">
<g clip-path="url(#clip0_5823_32)">
<path d="M21.6779 7.10334H25.5419L19.6396 0.909912V5.07298C19.6396 6.19846 20.5445 7.10334 21.6779 7.10334Z" fill="#DD1205"/>
<path d="M18.3806 5.07293V-0.0581055H6.29263C4.7264 -0.0581055 3.42798 1.2326 3.42798 2.7986V26.8329C3.42798 28.3991 4.7264 29.6896 6.29263 29.6896H23.5432C25.1092 29.6896 26.4076 28.3989 26.4076 26.8329V8.36245H21.6778C19.8522 8.36245 18.3806 6.89086 18.3806 5.07293ZM9.88127 15.3273C10.133 15.0913 10.5345 15.1069 10.7705 15.3588L14.2883 19.1363V10.149C14.2883 9.80271 14.5716 9.51947 14.9179 9.51947C15.2642 9.51947 15.5475 9.80271 15.5475 10.149V19.144L19.0653 15.3666C19.3013 15.1149 19.7028 15.099 19.9545 15.335C20.2064 15.5713 20.2221 15.9725 19.9861 16.2245L15.3743 21.1746C15.2563 21.3003 15.0911 21.3712 14.91 21.3712C14.7291 21.3712 14.5716 21.3003 14.4458 21.1746L9.83406 16.2245C9.61369 15.9646 9.62935 15.5713 9.88127 15.3273ZM22.0241 24.889C22.0241 25.2353 21.7409 25.5186 21.3946 25.5186H8.441C8.09466 25.5186 7.81142 25.2353 7.81142 24.889C7.81142 24.5427 8.09466 24.2594 8.441 24.2594H21.4025C21.7488 24.2594 22.0241 24.5429 22.0241 24.889Z" fill="#DD1205"/>
</g>
<defs>
<clipPath id="clip0_5823_32">
<rect width="29.7477" height="29.7477" fill="white"/>
</clipPath>
</defs>
</svg>
