<svg width="226" height="300" viewBox="0 0 226 300" fill="none" xmlns="http://www.w3.org/2000/svg">
<path d="M222.022 81.3887L148.671 4.53251L146.495 2.19827C145.186 0.803984 143.404 0.0134365 141.542 0H36.1558C26.5415 0.0328763 17.3329 4.0828 10.5534 11.2599C3.77388 18.4369 -0.0219069 28.154 9.51192e-05 38.2759V261.724C-0.0219069 271.846 3.77388 281.563 10.5534 288.74C17.3329 295.917 26.5415 299.967 36.1558 300H189.844C199.458 299.967 208.667 295.917 215.446 288.74C222.226 281.563 226.021 271.846 225.999 261.724V88.7438C226.012 87.7781 225.843 86.8193 225.502 85.9227C225.161 85.0261 224.655 84.2094 224.012 83.5197L222.022 81.3887ZM149.496 26.0135L201.756 81.2808H153.252C151.069 81.2808 149.496 79.1017 149.496 76.8037V26.0135ZM211.962 261.724C211.988 267.928 209.673 273.889 205.525 278.295C201.377 282.702 195.736 285.193 189.844 285.222H36.1558C30.2631 285.193 24.6225 282.702 20.4746 278.295C16.3267 273.889 14.0112 267.928 14.0373 261.724V38.2759C14.0112 32.0721 16.3267 26.1115 20.4746 21.7049C24.6225 17.2984 30.2631 14.8069 36.1558 14.7783H135.459V76.8037C135.459 87.2505 143.329 96.0591 153.252 96.0591H211.962V261.724Z" fill="#B0B0B0"/>
<path d="M163.839 174.332L128.936 221.891L197.314 222.095L163.839 174.332Z" fill="#46C43D"/>
<path d="M85.3203 144.595L28.6855 221.764L139.637 222.095L85.3203 144.595Z" fill="#3BB54A"/>
<circle cx="132.309" cy="133.81" r="14.305" fill="#FFD247"/>
</svg>
