<svg width="45" height="45" viewBox="0 0 45 45" fill="none" xmlns="http://www.w3.org/2000/svg">
<path d="M44.5 22.5C44.5 34.6503 34.6503 44.5 22.5 44.5C10.3497 44.5 0.5 34.6503 0.5 22.5C0.5 10.3497 10.3497 0.5 22.5 0.5C34.6503 0.5 44.5 10.3497 44.5 22.5Z" fill="#E5E5E5" fill-opacity="0.960784" stroke="#6A6A6A"/>
<path fill-rule="evenodd" clip-rule="evenodd" d="M28.327 23.2283C27.9247 23.2283 27.5986 23.5545 27.5986 23.9567C27.5986 24.359 27.9247 24.6852 28.327 24.6852C28.7293 24.6852 29.0554 24.359 29.0554 23.9567C29.0554 23.5545 28.7293 23.2283 28.327 23.2283ZM30.5122 23.9567C30.5122 25.1636 29.5339 26.142 28.327 26.142C27.1201 26.142 26.1418 25.1636 26.1418 23.9567C26.1418 22.7499 27.1201 21.7715 28.327 21.7715C29.5339 21.7715 30.5122 22.7499 30.5122 23.9567ZM22.4998 23.2283C22.0975 23.2283 21.7714 23.5545 21.7714 23.9567C21.7714 24.359 22.0975 24.6852 22.4998 24.6852C22.9021 24.6852 23.2282 24.359 23.2282 23.9567C23.2282 23.5545 22.9021 23.2283 22.4998 23.2283ZM24.685 23.9567C24.685 25.1636 23.7067 26.142 22.4998 26.142C21.2929 26.142 20.3146 25.1636 20.3146 23.9567C20.3146 22.7499 21.2929 21.7715 22.4998 21.7715C23.7067 21.7715 24.685 22.7499 24.685 23.9567ZM16.6725 23.2283C16.2702 23.2283 15.9441 23.5545 15.9441 23.9567C15.9441 24.359 16.2702 24.6852 16.6725 24.6852C17.0748 24.6852 17.4009 24.359 17.4009 23.9567C17.4009 23.5545 17.0748 23.2283 16.6725 23.2283ZM18.8577 23.9567C18.8577 25.1636 17.8794 26.142 16.6725 26.142C15.4656 26.142 14.4873 25.1636 14.4873 23.9567C14.4873 22.7499 15.4656 21.7715 16.6725 21.7715C17.8794 21.7715 18.8577 22.7499 18.8577 23.9567Z" fill="#6A6A6A"/>
<path fill-rule="evenodd" clip-rule="evenodd" d="M22.4998 9.38862C22.0975 9.38862 21.7714 9.71474 21.7714 10.117C21.7714 10.5193 22.0975 10.8454 22.4998 10.8454C22.9021 10.8454 23.2282 10.5193 23.2282 10.117C23.2282 9.71474 22.9021 9.38862 22.4998 9.38862ZM24.685 10.117C24.685 11.0685 24.0769 11.8779 23.2282 12.1779V15.2159H30.5122C32.926 15.2159 34.8827 17.1726 34.8827 19.5863V20.3147C36.0896 20.3147 37.0679 21.293 37.0679 22.4999V25.4136C37.0679 26.6205 36.0896 27.5988 34.8827 27.5988V31.2408V35.6113C34.8827 36.2532 34.4625 36.8195 33.8481 37.0056C33.2336 37.1916 32.5698 36.9535 32.2137 36.4194L30.1651 33.3463C29.8948 32.9411 29.44 32.6976 28.9529 32.6976H14.4873C12.0736 32.6976 10.1169 30.7409 10.1169 28.3272V27.5988C8.90999 27.5988 7.93164 26.6205 7.93164 25.4136V22.4999C7.93164 21.293 8.90999 20.3147 10.1169 20.3147V19.5863C10.1169 17.1726 12.0736 15.2159 14.4873 15.2159H21.7714V12.1779C20.9226 11.8779 20.3146 11.0685 20.3146 10.117C20.3146 8.91017 21.2929 7.93181 22.4998 7.93181C23.7067 7.93181 24.685 8.91017 24.685 10.117ZM22.4998 16.6727H14.4873C12.8782 16.6727 11.5737 17.9772 11.5737 19.5863V28.3272C11.5737 29.9363 12.8782 31.2408 14.4873 31.2408H28.9529C29.9271 31.2408 30.8368 31.7277 31.3772 32.5383L31.9691 33.426L33.4259 35.6113V32.9849V31.2408V19.5863C33.4259 17.9772 32.1214 16.6727 30.5122 16.6727H22.4998ZM10.1169 21.7715V26.142C9.71458 26.142 9.38845 25.8159 9.38845 25.4136V22.4999C9.38845 22.0976 9.71457 21.7715 10.1169 21.7715ZM34.8827 26.142V21.7715C35.285 21.7715 35.6111 22.0976 35.6111 22.4999V25.4136C35.6111 25.8159 35.285 26.142 34.8827 26.142Z" fill="#6A6A6A"/>
</svg>
