<svg width="47" height="50" viewBox="0 0 47 50" fill="none" xmlns="http://www.w3.org/2000/svg">
<path d="M23.5 47C35.9264 47 46 36.9264 46 24.5C46 12.0736 35.9264 2 23.5 2C11.0736 2 1 12.0736 1 24.5C1 36.9264 11.0736 47 23.5 47Z" fill="#DDDDDD"/>
<path d="M36.5952 36.5795C36.6005 35.9965 36.5723 35.4215 36.571 34.8479C36.567 31.7945 36.6005 28.741 36.5602 25.6889C36.5226 22.853 35.2437 20.6916 32.7921 19.2595C31.7403 18.6456 30.5729 18.3568 29.3558 18.3528C25.46 18.3407 21.5629 18.3286 17.6672 18.3555C15.683 18.3689 13.9568 19.0997 12.5597 20.5142C11.9686 21.112 11.5011 21.8066 11.1384 22.5897C10.6615 23.6201 10.4345 24.6814 10.4332 25.8017C10.4291 29.3106 10.4332 32.8195 10.4318 36.327C10.4318 36.3982 10.4788 36.5016 10.3955 36.5365C10.2948 36.5782 10.2424 36.468 10.1981 36.4035C9.68356 35.666 9.31011 34.86 8.98232 34.0218C8.51752 32.8329 8.40334 31.601 8.39393 30.3463C8.38721 29.4449 8.39259 28.5435 8.39393 27.6421C8.39393 25.5129 8.38587 23.385 8.40065 21.2558C8.40871 20.1596 8.53767 19.0701 8.96217 18.0519C9.65535 16.3928 10.6427 14.9366 12.0667 13.8041C12.9788 13.0801 13.9823 12.5239 15.0852 12.1478C16.0726 11.8106 17.0909 11.6279 18.1306 11.6239C21.7752 11.6131 25.4184 11.6091 29.0629 11.6319C30.01 11.6386 30.9356 11.8375 31.8477 12.1276C32.69 12.395 33.4745 12.7778 34.2013 13.248C34.8286 13.6537 35.4049 14.1548 35.9235 14.7096C36.8867 15.7399 37.5758 16.9342 38.0702 18.2453C38.4396 19.2246 38.6022 20.2469 38.6048 21.2894C38.6142 24.4678 38.6129 27.6475 38.6048 30.8272C38.6035 31.6897 38.4571 32.5306 38.2287 33.3689C38.0487 34.0312 37.8055 34.6639 37.4885 35.259C37.2427 35.7211 36.9686 36.1805 36.5938 36.5768L36.5952 36.5795Z" fill="#3E52FD"/>
<path d="M23.4895 38.694C21.6383 38.694 19.7872 38.6859 17.936 38.698C17.2254 38.7034 16.5295 38.6241 15.8646 38.389C15.3299 38.201 14.8732 37.8597 14.4352 37.5051C13.6547 36.8737 13.1456 36.0596 12.9038 35.0911C12.8017 34.6813 12.7614 34.2528 12.7614 33.827C12.7601 31.065 12.7668 28.3017 12.7574 25.5398C12.7533 24.461 13.0623 23.4656 13.7004 22.6327C14.4393 21.6682 15.428 21.0073 16.6612 20.7681C17.2281 20.658 17.7936 20.6392 18.3659 20.6392C21.9621 20.6392 25.5569 20.6311 29.1531 20.6432C30.9949 20.6499 32.4726 21.3888 33.4962 22.9457C34.0228 23.7464 34.2673 24.6491 34.2713 25.6029C34.2834 28.3165 34.2942 31.0301 34.2686 33.7437C34.2525 35.4 33.5795 36.7582 32.2442 37.7657C31.375 38.4226 30.381 38.6913 29.3049 38.6926C27.3664 38.694 25.428 38.6926 23.4895 38.6926V38.694ZM23.5056 32.9954C25.1633 32.9954 26.8197 32.9847 28.4774 33.0008C29.2055 33.0075 29.8812 32.8463 30.4898 32.4594C31.3119 31.9382 31.8439 31.2047 32.0508 30.2388C32.2173 29.4597 32.1542 28.6752 32.126 27.8933C32.1058 27.3305 31.9191 26.7985 31.6061 26.3203C30.8578 25.173 29.7791 24.6625 28.4304 24.6625C25.1539 24.6625 21.8788 24.6639 18.6023 24.6625C17.8836 24.6625 17.1945 24.7915 16.5725 25.1542C15.7181 25.6539 15.0854 26.3431 14.9269 27.36C14.7993 28.1781 14.8772 29.0016 14.9081 29.8224C14.9135 29.9769 14.9282 30.1341 14.9632 30.2832C15.338 31.8616 16.766 32.9914 18.3861 32.9941C20.0921 32.9968 21.7982 32.9941 23.5029 32.9941L23.5056 32.9954Z" fill="#3E52FD"/>
<path d="M23.5056 32.9954C21.7995 32.9954 20.0934 32.9968 18.3887 32.9954C16.7686 32.9927 15.3406 31.863 14.9658 30.2845C14.9309 30.1354 14.9161 29.9782 14.9107 29.8237C14.8798 29.003 14.8033 28.1781 14.9295 27.3614C15.0881 26.3431 15.7208 25.6539 16.5752 25.1556C17.1971 24.7929 17.8863 24.6625 18.605 24.6639C21.8815 24.6666 25.1566 24.6652 28.433 24.6639C29.7804 24.6639 30.8605 25.1744 31.6088 26.3216C31.9204 26.7998 32.1085 27.3318 32.1286 27.8947C32.1568 28.6765 32.22 29.461 32.0534 30.2402C31.8465 31.2047 31.3146 31.9395 30.4924 32.4608C29.8825 32.8477 29.2082 33.0089 28.4801 33.0021C26.8223 32.986 25.166 32.9968 23.5083 32.9968L23.5056 32.9954ZM18.8804 30.7399C19.9188 30.7843 20.8014 29.8869 20.8014 28.8458C20.8014 27.7845 19.9228 26.8966 18.8737 26.9019C17.8366 26.9073 16.9701 27.7872 16.9688 28.835C16.9674 29.9352 17.8876 30.7789 18.8804 30.7413V30.7399ZM28.12 30.7399C29.192 30.7399 30.0397 29.903 30.0424 28.8417C30.0451 27.7886 29.1571 26.8952 28.112 26.9006C27.0762 26.906 26.2111 27.7859 26.2098 28.8337C26.2098 29.9044 27.0453 30.7399 28.12 30.7386V30.7399Z" fill="#FEFEFE"/>
<path d="M18.8804 30.7399C17.8876 30.7775 16.9674 29.9339 16.9688 28.8337C16.9701 27.7859 17.8379 26.906 18.8736 26.9006C19.9228 26.8952 20.8014 27.7832 20.8014 28.8444C20.8014 29.8855 19.9188 30.7843 18.8804 30.7386V30.7399Z" fill="#3E52FD"/>
<path d="M28.1197 30.7399C27.0464 30.7399 26.2095 29.9057 26.2095 28.835C26.2095 27.7859 27.0759 26.9073 28.1117 26.9019C29.1568 26.8966 30.0448 27.7899 30.0421 28.8431C30.0394 29.9043 29.1917 30.7399 28.1197 30.7413V30.7399Z" fill="#3E52FD"/>
<path d="M32.4094 40.8979H36.0459V37.7343" fill="#3E52FD"/>
<path d="M24.7991 7.86915C24.7991 8.43337 24.4351 8.90892 23.9326 9.08893V15.036H23.0662V9.08893C22.5624 8.90892 22.1997 8.43337 22.1997 7.86915C22.1997 7.15314 22.7827 6.57012 23.4987 6.57012C24.2148 6.57012 24.7978 7.15314 24.7978 7.86915H24.7991Z" fill="#3E52FD"/>
</svg>
