<svg width="500" height="499" viewBox="0 0 500 499" fill="none" xmlns="http://www.w3.org/2000/svg">
<circle cx="250.146" cy="249.68" r="249.284" fill="#141D48"/>
<path d="M403.683 393.855C404.073 394.12 404.269 394.433 404.269 394.792C404.269 395.277 403.769 396.105 402.768 397.278C400.096 400.372 397.454 401.92 394.844 401.92C393.249 401.92 391.936 401.287 390.905 400.021C389.873 398.755 389.357 397.137 389.357 395.168C389.357 391.604 390.702 388.001 393.39 384.359C396.094 380.702 398.767 378.873 401.408 378.873C403.315 378.873 404.269 379.897 404.269 381.944C404.269 384.242 403.151 386.485 400.916 388.673C398.697 390.861 395.985 392.385 392.78 393.245C393.093 397.012 394.578 398.895 397.235 398.895C399.861 398.895 402.01 397.215 403.683 393.855ZM392.874 390.385C393.328 390.541 393.742 390.619 394.117 390.619C396.055 390.619 397.751 390.025 399.205 388.837C400.658 387.649 401.385 386.258 401.385 384.664C401.385 382.835 400.455 381.921 398.595 381.921C397.251 381.921 396.032 382.726 394.937 384.336C393.859 385.93 393.171 387.946 392.874 390.385Z" fill="#DCCDC6"/>
<path d="M378.385 396.715C382.746 390.619 384.926 386.376 384.926 383.984C384.926 383.093 384.473 382.39 383.566 381.874L386.497 378.873C387.638 379.451 388.209 380.374 388.209 381.64C388.209 383.203 386.716 386.243 383.73 390.76C383.074 391.729 382.613 392.432 382.347 392.87L381.761 393.878L380.682 395.59C380.089 396.528 379.463 397.583 378.807 398.755L375.548 401.92C374.954 396.887 373.985 392.323 372.641 388.228C371.296 384.133 370.093 382.085 369.03 382.085C367.842 382.085 367.014 383.265 366.545 385.625C366.092 385.469 365.865 385.211 365.865 384.852C365.865 383.664 366.373 382.382 367.389 381.007C368.42 379.631 369.39 378.92 370.296 378.873C373.688 378.701 376.384 384.648 378.385 396.715Z" fill="#DCCDC6"/>
<path d="M355.408 388.743C358.878 382.163 362.293 378.873 365.654 378.873C366.529 378.873 367.405 379.076 368.28 379.482L364.974 383.093C364.474 382.812 363.833 382.671 363.051 382.671C361.426 382.671 359.707 383.992 357.893 386.633C356.096 389.259 355.041 391.995 354.728 394.839L354.095 400.56L350.625 401.732L350.696 401.029L350.86 399.505L351.047 397.981L352.266 386.821L352.407 385.602C352.517 384.679 352.571 383.929 352.571 383.351C352.571 382.397 352.306 381.921 351.774 381.921C350.524 381.921 349.281 383.257 348.046 385.93C347.656 385.633 347.468 385.328 347.484 385.016C347.53 384.062 348.398 382.804 350.086 381.241C351.79 379.662 353.134 378.873 354.119 378.873C355.447 378.873 356.112 379.748 356.112 381.499C356.112 381.921 356.072 382.491 355.994 383.21L355.83 384.851L355.619 386.821L355.408 388.743Z" fill="#DCCDC6"/>
<path d="M344.131 393.855C344.522 394.12 344.717 394.433 344.717 394.792C344.717 395.277 344.217 396.105 343.216 397.278C340.544 400.372 337.902 401.92 335.292 401.92C333.698 401.92 332.385 401.287 331.353 400.021C330.321 398.755 329.806 397.137 329.806 395.168C329.806 391.604 331.15 388.001 333.838 384.359C336.542 380.702 339.215 378.873 341.857 378.873C343.763 378.873 344.717 379.897 344.717 381.944C344.717 384.242 343.599 386.485 341.364 388.673C339.145 390.861 336.433 392.385 333.229 393.245C333.541 397.012 335.026 398.895 337.683 398.895C340.309 398.895 342.458 397.215 344.131 393.855ZM333.322 390.385C333.776 390.541 334.19 390.619 334.565 390.619C336.503 390.619 338.199 390.025 339.653 388.837C341.106 387.649 341.833 386.258 341.833 384.664C341.833 382.835 340.903 381.921 339.043 381.921C337.699 381.921 336.48 382.726 335.386 384.336C334.307 385.93 333.619 387.946 333.322 390.385Z" fill="#DCCDC6"/>
<path d="M304.18 397.16L308.165 394.746C308.79 398.591 311.096 400.513 315.082 400.513C317.02 400.513 318.606 399.99 319.841 398.942C321.076 397.879 321.693 396.52 321.693 394.863C321.693 392.596 320.326 390.346 317.59 388.11L314.753 385.813C312.471 383.937 310.947 382.46 310.182 381.382C309.416 380.287 309.033 379.06 309.033 377.701C309.033 375.137 310.057 373.019 312.104 371.347C314.152 369.674 316.739 368.838 319.865 368.838C322.35 368.838 324.702 369.432 326.922 370.62L325.562 373.738L324.952 375.122C324.608 375.934 324.202 376.341 323.733 376.341C323.53 376.341 323.319 376.263 323.1 376.106C323.366 375.293 323.499 374.645 323.499 374.16C323.499 373.16 322.944 372.324 321.834 371.652C320.74 370.98 319.38 370.643 317.755 370.643C314.066 370.643 312.221 372.167 312.221 375.215C312.221 376.309 312.628 377.365 313.441 378.381C314.269 379.381 315.98 380.936 318.575 383.046L320.849 384.922C323.741 387.266 325.187 389.728 325.187 392.307C325.187 395.152 323.983 397.52 321.576 399.411C319.185 401.302 316.191 402.248 312.596 402.248C308.22 402.248 305.414 400.552 304.18 397.16Z" fill="#DCCDC6"/>
<path d="M297.708 382.695C296.583 381.897 295.169 381.499 293.465 381.499C291.323 381.499 289.51 382.843 288.025 385.531C286.556 388.22 285.822 391.526 285.822 395.449C285.822 397.481 286.423 398.497 287.627 398.497C289.002 398.497 290.683 397.434 292.668 395.308C295.419 392.354 296.997 389.009 297.404 385.274L297.708 382.695ZM301.718 379.787C301.64 380.069 301.593 380.241 301.577 380.303L301.319 381.546C301.116 382.452 301.006 382.952 300.991 383.046L300.053 391.627C299.897 393.065 299.733 395.59 299.561 399.2C299.342 403.717 298.912 407.062 298.271 409.235C297.63 411.408 296.497 413.346 294.872 415.05C291.152 418.973 287.189 420.934 282.985 420.934C280.953 420.934 279.265 420.247 277.92 418.871C276.576 417.496 275.904 415.776 275.904 413.713C275.904 409.509 278.475 405.359 283.618 401.264C282.524 400.404 281.976 398.888 281.976 396.715C281.976 391.995 283.532 387.892 286.642 384.406C289.753 380.921 293.426 379.178 297.662 379.178C299.459 379.178 300.811 379.381 301.718 379.787ZM296.653 392.096C292.433 398.536 288.612 401.756 285.189 401.756C285.048 401.756 284.798 401.74 284.438 401.709C280.812 405.366 278.999 408.625 278.999 411.486C278.999 413.44 279.687 415.073 281.062 416.386C282.453 417.715 284.173 418.379 286.22 418.379C289.377 418.379 291.8 416.988 293.488 414.205C294.77 412.064 295.661 406.961 296.161 398.895C296.349 395.848 296.513 393.581 296.653 392.096Z" fill="#DCCDC6"/>
<path d="M261.462 400.49L257.968 401.92L258.039 401.263L258.226 399.528L258.414 397.887L259.633 387.008L259.773 385.766C259.867 384.797 259.914 384.015 259.914 383.421C259.914 382.421 259.664 381.921 259.164 381.921C257.992 381.921 256.733 383.249 255.389 385.906C255.03 385.61 254.85 385.352 254.85 385.133C254.85 384.195 255.702 382.921 257.405 381.311C259.125 379.686 260.477 378.873 261.462 378.873C262.806 378.873 263.478 379.732 263.478 381.452C263.478 381.889 263.439 382.476 263.361 383.21L263.173 385.109L262.986 386.704L262.798 388.368C264.642 385.617 266.659 383.351 268.847 381.569C271.051 379.772 272.926 378.873 274.474 378.873C275.99 378.873 276.748 379.928 276.748 382.038C276.748 382.679 276.662 383.64 276.49 384.922L275.224 393.667C274.974 395.418 274.849 396.801 274.849 397.817C274.849 398.63 275.068 399.036 275.505 399.036C276.584 399.036 277.913 397.598 279.491 394.722C279.866 394.956 280.054 395.199 280.054 395.449C280.054 396.465 279.179 397.801 277.428 399.458C275.693 401.099 274.279 401.92 273.184 401.92C271.965 401.92 271.356 401.045 271.356 399.294C271.356 398.012 271.52 396.238 271.848 393.972L272.669 388.298C272.934 386.454 273.067 384.992 273.067 383.914C273.067 382.679 272.637 382.061 271.778 382.061C269.777 382.061 267.745 383.421 265.682 386.141C263.634 388.845 262.438 391.752 262.095 394.863L261.462 400.49Z" fill="#DCCDC6"/>
<path d="M252.294 394.488C252.716 394.738 252.927 394.98 252.927 395.214C252.927 395.777 252.247 396.887 250.888 398.544C249.059 400.795 247.363 401.92 245.8 401.92C244.659 401.92 244.088 401.162 244.088 399.646C244.088 399.005 244.323 397.035 244.792 393.737L245.706 387.36L245.941 385.742L246.128 384.453C246.206 383.906 246.245 383.445 246.245 383.07C246.245 382.288 246.027 381.897 245.589 381.897C244.37 381.897 243.057 383.242 241.65 385.93C241.353 385.664 241.205 385.399 241.205 385.133C241.205 384.179 242.08 382.898 243.83 381.288C245.597 379.678 247.003 378.873 248.051 378.873C249.223 378.873 249.809 379.686 249.809 381.311C249.809 381.624 249.747 382.265 249.622 383.234L249.411 384.805C249.395 384.93 249.309 385.563 249.153 386.704L248.191 393.409L247.957 394.91C247.754 396.395 247.652 397.387 247.652 397.887C247.652 398.559 247.848 398.895 248.238 398.895C249.551 398.895 250.903 397.426 252.294 394.488ZM247.582 375.848L249.551 370.995C251.302 370.276 252.74 369.284 253.865 368.018C254.022 368.236 254.1 368.463 254.1 368.698C254.1 370.792 251.927 373.176 247.582 375.848Z" fill="#DCCDC6"/>
<path d="M228.567 388.743C232.037 382.163 235.453 378.873 238.813 378.873C239.688 378.873 240.564 379.076 241.439 379.482L238.133 383.093C237.633 382.812 236.992 382.671 236.211 382.671C234.585 382.671 232.866 383.992 231.053 386.633C229.255 389.259 228.2 391.995 227.888 394.839L227.254 400.56L223.785 401.732L223.855 401.029L224.019 399.505L224.207 397.981L225.426 386.821L225.566 385.602C225.676 384.679 225.731 383.929 225.731 383.351C225.731 382.397 225.465 381.921 224.933 381.921C223.683 381.921 222.44 383.257 221.206 385.93C220.815 385.633 220.627 385.328 220.643 385.016C220.69 384.062 221.557 382.804 223.245 381.241C224.949 379.662 226.293 378.873 227.278 378.873C228.607 378.873 229.271 379.748 229.271 381.499C229.271 381.921 229.232 382.491 229.154 383.21L228.989 384.851L228.778 386.821L228.567 388.743Z" fill="#DCCDC6"/>
<path d="M211.241 382.202L210.069 392.565C209.866 394.425 209.764 395.801 209.764 396.692C209.764 398.458 210.366 399.341 211.569 399.341C212.867 399.341 214.211 398.278 215.602 396.152C215.836 396.449 215.954 396.715 215.954 396.95C215.954 397.825 215.18 398.872 213.633 400.091C212.101 401.31 210.78 401.92 209.67 401.92C207.451 401.92 206.341 400.498 206.341 397.653C206.341 396.606 206.474 394.91 206.74 392.565L207.888 382.202H202.941L205.684 379.483H208.193L208.686 375.215L212.132 374.067L211.546 379.483H221.487L218.744 382.202H211.241Z" fill="#DCCDC6"/>
<path d="M178.183 397.16L182.168 394.746C182.794 398.591 185.099 400.513 189.085 400.513C191.023 400.513 192.61 399.99 193.844 398.942C195.079 397.879 195.697 396.52 195.697 394.863C195.697 392.596 194.329 390.346 191.594 388.11L188.757 385.813C186.475 383.937 184.951 382.46 184.185 381.382C183.419 380.287 183.036 379.06 183.036 377.701C183.036 375.137 184.06 373.019 186.107 371.347C188.155 369.674 190.742 368.838 193.868 368.838C196.353 368.838 198.705 369.432 200.925 370.62L199.565 373.738L198.956 375.122C198.612 375.934 198.205 376.341 197.736 376.341C197.533 376.341 197.322 376.263 197.103 376.106C197.369 375.293 197.502 374.645 197.502 374.16C197.502 373.16 196.947 372.324 195.837 371.652C194.743 370.98 193.383 370.643 191.758 370.643C188.069 370.643 186.225 372.167 186.225 375.215C186.225 376.309 186.631 377.365 187.444 378.381C188.272 379.381 189.984 380.936 192.578 383.046L194.853 384.922C197.744 387.266 199.19 389.728 199.19 392.307C199.19 395.152 197.986 397.52 195.579 399.411C193.188 401.302 190.195 402.248 186.6 402.248C182.223 402.248 179.418 400.552 178.183 397.16Z" fill="#DCCDC6"/>
<path d="M380.693 78.4268L353.013 153.857C318.943 156.907 307.293 169.507 307.293 169.507L343.483 175.677L331.323 195.927L293.293 200.377L324.103 207.767C201.693 359.647 156.533 343.177 156.533 343.177C156.153 342.887 155.793 342.617 155.443 342.337C187.503 270.767 338.323 115.417 338.323 115.417C338.323 115.417 345.763 104.727 340.213 109.017C247.423 180.837 161.903 314.917 149.143 335.397H149.133C129.963 289.287 183.253 200.087 183.253 200.087C183.253 200.087 197.623 227.097 198.943 219.237C200.273 211.377 189.653 189.047 189.653 189.047L204.863 168.547C207.713 195.657 215.453 198.807 215.453 198.807C227.513 167.767 222.083 148.757 222.083 148.757C297.653 77.5368 380.693 78.4268 380.693 78.4268Z" fill="url(#paint0_linear_5892_40)"/>
<path d="M149.473 333.817C148.793 333.677 113.773 400.557 108.683 410.297C108.163 411.287 107.523 413.117 108.453 413.747C108.913 414.057 109.763 414.417 110.613 413.537C112.473 411.607 156.993 339.177 156.993 339.177L149.483 333.817H149.473Z" fill="#DCCDC6"/>
<defs>
<linearGradient id="paint0_linear_5892_40" x1="134.494" y1="226.787" x2="394.517" y2="196.334" gradientUnits="userSpaceOnUse">
<stop offset="0.08" stop-color="white"/>
<stop offset="0.34" stop-color="#DCCDC6"/>
</linearGradient>
</defs>
</svg>
