<svg width="46" height="43" viewBox="0 0 46 43" fill="none" xmlns="http://www.w3.org/2000/svg">
<circle cx="21.2201" cy="21.4582" r="20.9046" fill="#FF8E8B"/>
<path d="M9.42041 39.157C10.0836 39.0952 10.5619 38.5928 11.0799 38.234C11.6331 37.8512 12.234 37.6301 12.8123 37.3055C13.788 36.7579 14.0362 35.218 12.5013 35.3757C11.2507 35.5049 9.46814 36.3851 8.69641 37.3879C8.44068 37.7206 8.22815 38.1486 8.35727 38.548C8.48841 38.954 8.95114 39.1856 9.3772 39.16C9.39177 39.159 9.40584 39.158 9.42041 39.1565V39.157Z" fill="url(#paint0_linear_5677_855)"/>
<path d="M32.0192 39.6504C31.4937 39.6876 30.7456 39.2942 30.3245 39.0826C29.7673 38.8023 29.2468 38.4546 28.7323 38.1039C28.2374 37.7668 27.8888 37.0865 28.2289 36.5127C28.7218 35.6812 29.9748 36.1259 30.6883 36.3746C31.5605 36.6785 32.6543 37.2046 33.0025 38.132C33.2235 38.7214 32.7497 39.5032 32.1317 39.6348C32.0956 39.6423 32.0579 39.6479 32.0192 39.6504Z" fill="url(#paint1_linear_5677_855)"/>
<path d="M27.9395 33.3017C27.9395 33.3017 30.5115 37.6497 31.1013 42.4534H10.6108C11.2012 37.6492 13.7726 33.3017 13.7726 33.3017H27.9395Z" fill="url(#paint2_linear_5677_855)"/>
<path style="mix-blend-mode:multiply" d="M31.1018 42.4534C30.7671 39.7308 29.7965 37.1553 29.0177 35.4345C26.8316 37.4126 23.7658 38.4064 20.8362 38.0291C20.6694 38.0074 20.479 37.9889 20.3534 38.1009C20.2524 38.1913 20.2282 38.3375 20.2107 38.4722C20.0378 39.7966 19.8926 41.1245 19.7695 42.4539H31.1008L31.1018 42.4534Z" fill="url(#paint3_linear_5677_855)"/>
<path d="M20.8559 35.8455C24.3034 35.8455 27.0981 34.856 27.0981 33.6353C27.0981 32.4147 24.3034 31.4252 20.8559 31.4252C17.4085 31.4252 14.6138 32.4147 14.6138 33.6353C14.6138 34.856 17.4085 35.8455 20.8559 35.8455Z" fill="url(#paint4_linear_5677_855)"/>
<path d="M4.40205 19.4468C3.12789 24.9835 4.70149 31.8321 11.1275 33.3027C14.8661 34.1583 18.7559 34.1408 22.5894 33.9207C25.5386 33.7514 28.5406 33.4504 31.2427 32.2853C40.6396 28.2327 37.9441 15.6942 31.0714 10.5237C26.8751 7.36695 20.8932 6.14102 15.7634 7.4619C14.2546 7.85028 12.8277 8.49942 11.5239 9.34701C7.96727 11.6587 5.32249 15.4465 4.40154 19.4468H4.40205Z" fill="url(#paint5_linear_5677_855)"/>
<path style="mix-blend-mode:screen" d="M14.9185 8.15323C13.9272 8.50292 12.9837 9.0154 12.1049 9.55902C11.0131 10.2343 7.62579 12.6108 9.3054 14.004C9.78321 14.4004 10.468 14.4768 11.0719 14.3326C11.5502 14.218 11.9889 13.9814 12.4209 13.7467C14.4191 12.663 16.574 11.6406 18.4033 10.282C20.0026 9.09378 19.1012 7.66085 17.291 7.69502C16.4775 7.71059 15.6837 7.88343 14.9185 8.15373V8.15323Z" fill="url(#paint6_linear_5677_855)"/>
<path d="M37.0486 26.9395C37.9257 26.9395 38.6368 24.8351 38.6368 22.2393C38.6368 19.6434 37.9257 17.5391 37.0486 17.5391C36.1715 17.5391 35.4604 19.6434 35.4604 22.2393C35.4604 24.8351 36.1715 26.9395 37.0486 26.9395Z" fill="url(#paint7_linear_5677_855)"/>
<path d="M37.0488 26.0919C37.6512 26.0919 38.1395 24.367 38.1395 22.2393C38.1395 20.1115 37.6512 18.3866 37.0488 18.3866C36.4464 18.3866 35.958 20.1115 35.958 22.2393C35.958 24.367 36.4464 26.0919 37.0488 26.0919Z" fill="url(#paint8_linear_5677_855)"/>
<path d="M35.4603 22.2393C35.4603 19.6437 36.2843 17.5391 37.1615 17.5391L35.9577 16.7965C35.9577 16.7965 34.1339 18.1113 34.2831 22.2388C34.4474 26.7933 36.1597 27.9509 36.1597 27.9509L37.3479 26.8546C36.4707 26.8546 35.4603 24.8348 35.4603 22.2388V22.2393Z" fill="url(#paint9_linear_5677_855)"/>
<path d="M4.1829 26.9395C5.06002 26.9395 5.77107 24.8351 5.77107 22.2393C5.77107 19.6434 5.06002 17.5391 4.1829 17.5391C3.30577 17.5391 2.59473 19.6434 2.59473 22.2393C2.59473 24.8351 3.30577 26.9395 4.1829 26.9395Z" fill="url(#paint10_linear_5677_855)"/>
<path d="M4.18305 26.0919C4.78547 26.0919 5.27382 24.367 5.27382 22.2393C5.27382 20.1115 4.78547 18.3866 4.18305 18.3866C3.58064 18.3866 3.09229 20.1115 3.09229 22.2393C3.09229 24.367 3.58064 26.0919 4.18305 26.0919Z" fill="url(#paint11_linear_5677_855)"/>
<path d="M5.77092 22.2393C5.77092 19.6437 4.94694 17.5391 4.0697 17.5391L5.27352 16.7965C5.27352 16.7965 7.09732 18.1113 6.9481 22.2388C6.78381 26.7933 5.07154 27.9508 5.07154 27.9508L3.8833 26.8545C4.76054 26.8545 5.77092 24.8348 5.77092 22.2388V22.2393Z" fill="url(#paint12_linear_5677_855)"/>
<path d="M22.1519 14.4004C16.996 14.4215 12.3883 14.6084 10.1987 18.7675C8.87782 21.2766 8.82808 24.2676 9.67919 26.9229C10.4459 29.315 13.2881 30.3655 15.6731 30.7253C18.2707 31.1172 20.8195 31.1041 23.4447 30.8971C25.3534 30.7464 27.3078 30.4761 28.9714 29.5652C31.4564 28.2041 32.1482 25.6965 32.1869 23.115C32.2723 17.4823 29.0724 14.3723 22.1514 14.4009L22.1519 14.4004Z" fill="url(#paint13_linear_5677_855)"/>
<path d="M22.0579 14.9214C17.2245 14.941 12.9052 15.1164 10.8528 19.0152C9.61427 21.3676 9.56805 24.1711 10.3659 26.6601C11.0849 28.9025 13.7487 29.8877 15.9845 30.2248C18.4193 30.5921 20.8088 30.5801 23.2697 30.3856C25.0589 30.2444 26.8912 29.9912 28.4502 29.1371C30.7795 27.8609 31.4281 25.5106 31.4648 23.0909C31.5447 17.8104 28.5452 14.8953 22.0574 14.9219L22.0579 14.9214Z" fill="url(#paint14_linear_5677_855)"/>
<path d="M19.2303 22.7618C19.2303 24.5424 17.7869 25.9854 16.0068 25.9854C14.2267 25.9854 12.7832 24.5419 12.7832 22.7618C12.7832 20.9817 14.2267 19.5382 16.0068 19.5382C17.7869 19.5382 19.2303 20.9817 19.2303 22.7618ZM25.7001 19.5377C23.9195 19.5377 22.4765 20.9812 22.4765 22.7613C22.4765 24.5414 23.92 25.9849 25.7001 25.9849C27.4802 25.9849 28.9237 24.5414 28.9237 22.7613C28.9237 20.9812 27.4802 19.5377 25.7001 19.5377Z" fill="#D0B000"/>
<path style="mix-blend-mode:screen" d="M19.8581 26.6133C21.9852 24.4862 21.9852 21.0374 19.8581 18.9103C17.731 16.7832 14.2823 16.7832 12.1552 18.9103C10.0281 21.0374 10.0281 24.4862 12.1552 26.6133C14.2823 28.7404 17.731 28.7404 19.8581 26.6133Z" fill="url(#paint15_radial_5677_855)"/>
<path style="mix-blend-mode:screen" d="M29.5515 26.511C31.6786 24.3839 31.6786 20.9352 29.5515 18.8081C27.4244 16.681 23.9757 16.681 21.8485 18.8081C19.7214 20.9352 19.7214 24.3839 21.8485 26.511C23.9757 28.6382 27.4244 28.6382 29.5515 26.511Z" fill="url(#paint16_radial_5677_855)"/>
<path style="mix-blend-mode:screen" d="M36.9992 21.037C36.7671 18.2244 35.7814 16.4825 34.7976 17.1462C33.8139 17.8104 33.2049 20.6285 33.437 23.4416C33.6692 26.2542 34.6549 27.9961 35.6387 27.3324C36.6224 26.6682 37.2314 23.8501 36.9992 21.037Z" fill="url(#paint17_radial_5677_855)"/>
<path style="mix-blend-mode:screen" d="M8.04564 21.037C7.81351 18.2244 6.82775 16.4825 5.844 17.1462C4.86025 17.8104 4.25131 20.6285 4.48343 23.4416C4.71555 26.2542 5.70131 27.9961 6.68506 27.3324C7.66882 26.6682 8.27776 23.8501 8.04564 21.037Z" fill="url(#paint18_radial_5677_855)"/>
<path d="M34.8103 30.4585C35.8679 30.1425 36.9446 30.145 38.0022 30.9223C38.8734 31.5628 39.4628 32.526 39.8426 33.5389C40.0361 34.0544 40.1818 34.5995 40.1531 35.1492C40.0129 37.797 36.6181 38.732 34.4797 39.0385C32.6574 39.2997 31.1893 38.848 29.7147 37.8216C26.3977 35.5134 30.707 32.4542 32.7162 31.389C33.398 31.0278 34.1004 30.671 34.8113 30.4585H34.8103Z" fill="url(#paint19_linear_5677_855)"/>
<path d="M35.5821 32.3532C35.3826 33.8841 36.4031 35.7722 37.7435 36.5203C38.6509 37.0267 39.6136 36.9454 39.9532 35.8445C40.123 35.2944 40.0492 34.696 39.8894 34.1428C39.5357 32.9174 38.7177 31.7312 37.6652 30.9951C36.6583 30.2907 35.7142 31.3373 35.5816 32.3527L35.5821 32.3532Z" fill="url(#paint20_linear_5677_855)"/>
<path style="mix-blend-mode:screen" d="M37.3596 36.453C36.8361 36.6519 35.9538 35.6089 35.3901 34.1232C34.8259 32.6375 34.7937 31.2725 35.3173 31.0735C35.8408 30.8745 36.723 31.9176 37.2868 33.4032C37.851 34.8889 37.8831 36.254 37.3596 36.453Z" fill="url(#paint21_radial_5677_855)"/>
<path d="M44.3277 35.5938C44.5307 35.4838 44.7472 35.3305 44.7754 35.1014C44.8281 34.6714 44.2408 34.4975 43.8077 34.4875C43.1445 34.4719 42.4808 34.4568 41.8176 34.4412C42.74 34.1317 43.6464 33.7745 44.5327 33.3726C44.9221 33.1962 45.3275 32.9932 45.5556 32.6315C45.7837 32.2703 45.741 31.705 45.3617 31.5086C45.0924 31.3689 44.7663 31.4558 44.4764 31.5458C43.563 31.8286 42.6496 32.111 41.7362 32.3939C42.5145 31.9693 43.2485 31.4629 43.9217 30.8856C44.1996 30.6474 44.4764 30.3836 44.601 30.0395C44.7256 29.6953 44.6493 29.2522 44.3373 29.0608C43.977 28.8407 43.5158 29.0376 43.143 29.2356C42.3356 29.6642 41.5282 30.0922 40.7208 30.5208C40.4223 30.6791 40.0701 30.8409 39.7606 30.7047C39.3672 30.5319 39.3065 29.9732 39.4818 29.5813C39.6577 29.1894 39.9913 28.8924 40.2219 28.5302C40.3334 28.3553 40.4228 28.1453 40.3721 27.9444C40.246 27.446 39.5049 27.5133 39.0567 27.7645C37.7454 28.4995 36.7988 29.8526 36.5572 31.3362C36.304 32.8918 36.8938 35.3356 38.4327 36.1163C40.0249 36.9242 42.8471 36.3967 44.3282 35.5943L44.3277 35.5938Z" fill="url(#paint22_linear_5677_855)"/>
<path d="M9.67506 32.3873C9.248 31.3694 8.56269 30.5394 7.29054 30.2153C6.24248 29.9485 5.12408 30.1053 4.10064 30.4545C3.57962 30.6323 3.06564 30.8655 2.65968 31.2368C0.702724 33.0259 2.13564 36.2424 3.25606 38.0894C4.21117 39.6635 5.49236 40.5105 7.22121 40.9989C11.1105 42.0962 10.7387 36.8247 10.286 34.5965C10.1323 33.8403 9.96194 33.0711 9.67506 32.3873Z" fill="url(#paint23_linear_5677_855)"/>
<path d="M7.72095 32.9937C6.66485 34.1202 4.55817 34.5297 3.12877 33.9689C2.1616 33.5891 1.61345 32.7943 2.24801 31.8326C2.56555 31.3523 3.0745 31.0297 3.60306 30.8016C4.77421 30.2972 6.21015 30.1761 7.44712 30.5218C8.63084 30.8529 8.42133 32.2461 7.72044 32.9937H7.72095Z" fill="url(#paint24_linear_5677_855)"/>
<path style="mix-blend-mode:screen" d="M3.4252 34.2232C3.60406 34.7542 4.96966 34.7733 6.47543 34.2659C7.9812 33.7584 9.0569 32.9169 8.87803 32.3863C8.69917 31.8552 7.33357 31.8361 5.8278 32.3436C4.32203 32.851 3.24633 33.6926 3.4252 34.2232Z" fill="url(#paint25_radial_5677_855)"/>
<path d="M1.02838 28.916C1.07762 28.81 1.13288 28.7045 1.19569 28.5985C1.74233 27.6735 2.7522 27.039 3.82237 26.947C3.98013 25.9402 4.39062 24.974 5.00458 24.1606C5.19048 23.9149 5.43014 23.6642 5.73813 23.6496C6.06068 23.6345 6.34305 23.8998 6.45559 24.2023C6.56763 24.5052 6.54804 24.8389 6.52693 25.1609C6.47971 25.8824 6.43198 26.6039 6.38475 27.3249C6.36063 27.6946 6.33953 28.084 6.50181 28.4171C6.6641 28.7502 7.07709 28.9919 7.41271 28.8352C7.68955 28.7055 7.8031 28.3714 7.83023 28.0669C7.85736 27.763 7.82922 27.4454 7.94277 27.1621C8.05632 26.8782 8.38541 26.6456 8.66275 26.7737C8.78635 26.831 8.87226 26.947 8.9431 27.0636C9.80075 28.4719 8.87779 30.4711 7.88901 31.5945C6.84799 32.7777 4.58556 33.873 3.00543 33.1796C1.24995 32.4094 0.209924 30.6826 1.02888 28.916H1.02838Z" fill="url(#paint26_linear_5677_855)"/>
<path d="M5.30982 28.0202C5.64192 28.6116 5.75698 29.333 5.53641 29.9626C5.36759 30.4444 5.03449 30.8474 4.70791 31.2398C4.38334 31.6291 4.0226 32.0416 3.52771 32.1512C2.56255 32.3647 0.975883 31.393 0.789483 30.4228C0.676939 29.8365 0.833696 29.2275 1.08642 28.6869C1.4753 27.8564 2.15156 27.1028 3.04236 26.8842C4.00099 26.6486 4.85663 27.2143 5.30982 28.0207V28.0202Z" fill="url(#paint27_linear_5677_855)"/>
<path style="mix-blend-mode:screen" d="M12.0189 39.9684C11.9325 40.3186 11.8773 40.7497 12.1501 40.9853C12.2943 41.1099 12.4942 41.1416 12.6831 41.1687C13.0238 41.2175 13.379 41.2647 13.7066 41.1592C14.3226 40.9607 14.6476 40.3005 14.8712 39.6936C15.1506 38.9369 15.3782 38.1612 15.5525 37.3739C15.6198 37.0709 15.6781 36.7494 15.5781 36.4549C15.2546 35.5059 13.8503 35.3205 13.3554 36.0073C12.6244 37.0217 12.3144 38.7686 12.0184 39.9679L12.0189 39.9684Z" fill="url(#paint28_linear_5677_855)"/>
<path d="M17.2852 28.1413H24.4266C24.4266 28.1413 20.7841 31.7196 17.2852 28.1413Z" fill="#F6EC5A"/>
<defs>
<linearGradient id="paint0_linear_5677_855" x1="13.9948" y1="34.1455" x2="7.28828" y2="40.8199" gradientUnits="userSpaceOnUse">
<stop stop-color="#27213B"/>
<stop offset="1" stop-color="#433B51"/>
</linearGradient>
<linearGradient id="paint1_linear_5677_855" x1="27.3696" y1="35.4314" x2="34.458" y2="40.4523" gradientUnits="userSpaceOnUse">
<stop stop-color="#27213B"/>
<stop offset="1" stop-color="#433B51"/>
</linearGradient>
<linearGradient id="paint2_linear_5677_855" x1="34.0887" y1="37.8778" x2="10.2682" y2="37.8778" gradientUnits="userSpaceOnUse">
<stop stop-color="#8B9AC4"/>
<stop offset="1" stop-color="#E8EAF6"/>
</linearGradient>
<linearGradient id="paint3_linear_5677_855" x1="46.7845" y1="31.0564" x2="17.3745" y2="43.9235" gradientUnits="userSpaceOnUse">
<stop stop-color="#9199AD"/>
<stop offset="1" stop-color="white"/>
</linearGradient>
<linearGradient id="paint4_linear_5677_855" x1="27.0981" y1="33.6353" x2="14.6138" y2="33.6353" gradientUnits="userSpaceOnUse">
<stop stop-color="#27213B"/>
<stop offset="1" stop-color="#433B51"/>
</linearGradient>
<linearGradient id="paint5_linear_5677_855" x1="22.6884" y1="33.5796" x2="18.0927" y2="9.79819" gradientUnits="userSpaceOnUse">
<stop stop-color="#8B9AC4"/>
<stop offset="1" stop-color="#E8EAF6"/>
</linearGradient>
<linearGradient id="paint6_linear_5677_855" x1="14.3498" y1="3.19981" x2="13.7313" y2="18.8429" gradientUnits="userSpaceOnUse">
<stop stop-color="white"/>
<stop offset="0.09" stop-color="#F2F2F2"/>
<stop offset="0.25" stop-color="#D1D1D1"/>
<stop offset="0.47" stop-color="#9B9B9B"/>
<stop offset="0.73" stop-color="#515151"/>
<stop offset="1"/>
</linearGradient>
<linearGradient id="paint7_linear_5677_855" x1="37.0486" y1="19.1232" x2="37.0486" y2="28.9828" gradientUnits="userSpaceOnUse">
<stop stop-color="#8B9AC4"/>
<stop offset="1" stop-color="#E8EAF6"/>
</linearGradient>
<linearGradient id="paint8_linear_5677_855" x1="37.0488" y1="26.1381" x2="37.0488" y2="17.7621" gradientUnits="userSpaceOnUse">
<stop stop-color="#27213B"/>
<stop offset="1" stop-color="#433B51"/>
</linearGradient>
<linearGradient id="paint9_linear_5677_855" x1="35.8115" y1="27.8036" x2="35.8115" y2="15.8675" gradientUnits="userSpaceOnUse">
<stop stop-color="#F9CC23"/>
<stop offset="0.27" stop-color="#F9D027"/>
<stop offset="0.32" stop-color="#F9D229"/>
<stop offset="0.59" stop-color="#F9DD21"/>
<stop offset="1" stop-color="#F9EA1A"/>
</linearGradient>
<linearGradient id="paint10_linear_5677_855" x1="4.1829" y1="19.1232" x2="4.1829" y2="28.9828" gradientUnits="userSpaceOnUse">
<stop stop-color="#8B9AC4"/>
<stop offset="1" stop-color="#E8EAF6"/>
</linearGradient>
<linearGradient id="paint11_linear_5677_855" x1="4.18305" y1="26.1381" x2="4.18305" y2="17.7621" gradientUnits="userSpaceOnUse">
<stop stop-color="#27213B"/>
<stop offset="1" stop-color="#433B51"/>
</linearGradient>
<linearGradient id="paint12_linear_5677_855" x1="5.42022" y1="27.8036" x2="5.42022" y2="15.8675" gradientUnits="userSpaceOnUse">
<stop stop-color="#F9CC23"/>
<stop offset="0.27" stop-color="#F9D027"/>
<stop offset="0.32" stop-color="#F9D229"/>
<stop offset="1" stop-color="#F9D930"/>
</linearGradient>
<linearGradient id="paint13_linear_5677_855" x1="20.6497" y1="12.5173" x2="20.6497" y2="30.8132" gradientUnits="userSpaceOnUse">
<stop stop-color="#8B9AC4"/>
<stop offset="1" stop-color="#E8EAF6"/>
</linearGradient>
<linearGradient id="paint14_linear_5677_855" x1="22.2242" y1="29.2622" x2="19.2378" y2="17.5155" gradientUnits="userSpaceOnUse">
<stop stop-color="#27213B"/>
<stop offset="1" stop-color="#433B51"/>
</linearGradient>
<radialGradient id="paint15_radial_5677_855" cx="0" cy="0" r="1" gradientUnits="userSpaceOnUse" gradientTransform="translate(16.0065 22.7616) scale(5.44681)">
<stop offset="0.58" stop-color="#CEC25A"/>
<stop offset="0.59" stop-color="#CBC059"/>
<stop offset="0.63" stop-color="#9C9344"/>
<stop offset="0.67" stop-color="#726C32"/>
<stop offset="0.71" stop-color="#4F4A22"/>
<stop offset="0.76" stop-color="#322F16"/>
<stop offset="0.8" stop-color="#1C1A0C"/>
<stop offset="0.86" stop-color="#0C0B05"/>
<stop offset="0.92" stop-color="#020201"/>
<stop offset="1"/>
</radialGradient>
<radialGradient id="paint16_radial_5677_855" cx="0" cy="0" r="1" gradientUnits="userSpaceOnUse" gradientTransform="translate(25.6998 22.6597) scale(5.44681)">
<stop offset="0.58" stop-color="#CEC25A"/>
<stop offset="0.59" stop-color="#CBC059"/>
<stop offset="0.63" stop-color="#9C9344"/>
<stop offset="0.67" stop-color="#726C32"/>
<stop offset="0.71" stop-color="#4F4A22"/>
<stop offset="0.76" stop-color="#322F16"/>
<stop offset="0.8" stop-color="#1C1A0C"/>
<stop offset="0.86" stop-color="#0C0B05"/>
<stop offset="0.92" stop-color="#020201"/>
<stop offset="1"/>
</radialGradient>
<radialGradient id="paint17_radial_5677_855" cx="0" cy="0" r="1" gradientUnits="userSpaceOnUse" gradientTransform="translate(34.7974 22.1742) scale(1.81868 5.21356)">
<stop offset="0.17" stop-color="#8EE2EC"/>
<stop offset="0.75" stop-color="#284043"/>
<stop offset="1"/>
</radialGradient>
<radialGradient id="paint18_radial_5677_855" cx="0" cy="0" r="1" gradientUnits="userSpaceOnUse" gradientTransform="translate(6.02925 5.5017) scale(1.81868 5.21356)">
<stop offset="0.17" stop-color="#8EE2EC"/>
<stop offset="0.75" stop-color="#284043"/>
<stop offset="1"/>
</radialGradient>
<linearGradient id="paint19_linear_5677_855" x1="33.3213" y1="40.7366" x2="35.5574" y2="29.093" gradientUnits="userSpaceOnUse">
<stop stop-color="#8B9AC4"/>
<stop offset="1" stop-color="#E8EAF6"/>
</linearGradient>
<linearGradient id="paint20_linear_5677_855" x1="38.9975" y1="37.6895" x2="36.4254" y2="29.7016" gradientUnits="userSpaceOnUse">
<stop stop-color="#F9CC23"/>
<stop offset="0.27" stop-color="#F9D027"/>
<stop offset="0.32" stop-color="#F9D229"/>
<stop offset="0.59" stop-color="#F9DD21"/>
<stop offset="1" stop-color="#F9EA1A"/>
</linearGradient>
<radialGradient id="paint21_radial_5677_855" cx="0" cy="0" r="1" gradientUnits="userSpaceOnUse" gradientTransform="translate(36.2725 33.7552) rotate(69.21) scale(2.87987 1.01048)">
<stop offset="0.17" stop-color="#8EE2EC"/>
<stop offset="0.64" stop-color="#284043"/>
<stop offset="0.85"/>
</radialGradient>
<linearGradient id="paint22_linear_5677_855" x1="39.1015" y1="36.6432" x2="42.8922" y2="27.9419" gradientUnits="userSpaceOnUse">
<stop stop-color="#27213B"/>
<stop offset="1" stop-color="#433B51"/>
</linearGradient>
<linearGradient id="paint23_linear_5677_855" x1="9.59166" y1="34.5603" x2="1.39657" y2="37.7005" gradientUnits="userSpaceOnUse">
<stop stop-color="#8B9AC4"/>
<stop offset="1" stop-color="#E8EAF6"/>
</linearGradient>
<linearGradient id="paint24_linear_5677_855" x1="1.43177" y1="33.7541" x2="9.23739" y2="30.6715" gradientUnits="userSpaceOnUse">
<stop stop-color="#F9CC23"/>
<stop offset="0.27" stop-color="#F9D027"/>
<stop offset="0.32" stop-color="#F9D229"/>
<stop offset="0.59" stop-color="#F9DD21"/>
<stop offset="1" stop-color="#F9EA1A"/>
</linearGradient>
<radialGradient id="paint25_radial_5677_855" cx="0" cy="0" r="1" gradientUnits="userSpaceOnUse" gradientTransform="translate(6.23343 33.0496) rotate(161.38) scale(2.87872 1.01008)">
<stop offset="0.17" stop-color="#8EE2EC"/>
<stop offset="0.64" stop-color="#284043"/>
<stop offset="0.85"/>
</radialGradient>
<linearGradient id="paint26_linear_5677_855" x1="4.92419" y1="29.7219" x2="5.84363" y2="25.1262" gradientUnits="userSpaceOnUse">
<stop stop-color="#27213B"/>
<stop offset="1" stop-color="#433B51"/>
</linearGradient>
<linearGradient id="paint27_linear_5677_855" x1="3.20113" y1="32.3994" x2="3.20113" y2="28.9527" gradientUnits="userSpaceOnUse">
<stop stop-color="#27213B"/>
<stop offset="1" stop-color="#433B51"/>
</linearGradient>
<linearGradient id="paint28_linear_5677_855" x1="10.9915" y1="34.8401" x2="17.1186" y2="43.0352" gradientUnits="userSpaceOnUse">
<stop stop-color="white"/>
<stop offset="0.09" stop-color="#F2F2F2"/>
<stop offset="0.25" stop-color="#D1D1D1"/>
<stop offset="0.47" stop-color="#9B9B9B"/>
<stop offset="0.73" stop-color="#515151"/>
<stop offset="1"/>
</linearGradient>
</defs>
</svg>
