<svg width="226" height="300" viewBox="0 0 226 300" fill="none" xmlns="http://www.w3.org/2000/svg">
<g clip-path="url(#clip0_5803_835)">
<path d="M223.669 64.3312L161.169 1.83105C159.997 0.65918 158.41 0 156.75 0H25.4996C11.7119 0 0.5 11.2119 0.5 25.0002V275C0.5 288.788 11.7119 300 25.5002 300H200.5C214.288 300 225.5 288.788 225.5 275V68.7498C225.5 67.0898 224.841 65.5031 223.669 64.3312ZM163 21.3381L204.162 62.5002H175.5C168.609 62.5002 163 56.891 163 50.0004V21.3381ZM213 275C213 281.89 207.391 287.5 200.5 287.5H25.5002C18.6096 287.5 13.0004 281.89 13.0004 275V25.0002C13.0004 18.1096 18.6096 12.5004 25.5002 12.5004H150.5V50.0004C150.5 63.7881 161.712 75 175.5 75H213V275Z" fill="#E31E24"/>
<path d="M144.866 183.478C139.08 178.924 133.581 174.243 129.919 170.581C125.158 165.82 120.916 161.206 117.23 156.812C122.98 139.044 125.5 129.883 125.5 125C125.5 104.254 118.005 99.9996 106.75 99.9996C98.1992 99.9996 88.0004 104.443 88.0004 125.598C88.0004 134.924 93.1092 146.247 103.235 159.405C100.757 166.968 97.8453 175.69 94.574 185.522C92.999 190.24 91.2904 194.61 89.4834 198.651C88.0127 199.304 86.5842 199.969 85.2049 200.659C80.2367 203.143 75.5188 205.377 71.1424 207.452C51.1836 216.901 38 223.151 38 235.492C38 244.452 47.7354 250 56.75 250C68.3709 250 85.9186 234.478 98.7359 208.331C112.041 203.082 128.582 199.194 141.638 196.758C152.099 204.803 163.653 212.5 169.25 212.5C184.747 212.5 188 203.539 188 196.026C188 181.249 171.117 181.249 163 181.249C160.479 181.25 153.717 181.995 144.866 183.478ZM56.75 237.5C53.1793 237.5 50.7623 235.815 50.4998 235.492C50.4998 231.06 63.7139 224.798 76.4949 218.744C77.3064 218.36 78.1309 217.975 78.967 217.578C69.5797 231.189 60.2961 237.5 56.75 237.5ZM100.5 125.598C100.5 112.5 104.565 112.5 106.75 112.5C111.17 112.5 113.001 112.5 113.001 125C113.001 127.637 111.243 134.228 108.026 144.519C103.118 136.963 100.5 130.487 100.5 125.598ZM105.291 192.773C105.682 191.687 106.061 190.589 106.427 189.478C108.746 182.52 110.834 176.269 112.695 170.642C115.289 173.498 118.085 176.422 121.082 179.419C122.254 180.591 125.159 183.227 129.029 186.529C121.325 188.208 113.128 190.289 105.291 192.773ZM175.5 196.027C175.5 198.834 175.5 200 169.702 200.037C167.999 199.671 164.062 197.351 159.204 194.043C160.967 193.848 162.267 193.75 163 193.75C172.235 193.75 174.853 194.653 175.5 196.027Z" fill="#E31E24"/>
</g>
<defs>
<clipPath id="clip0_5803_835">
<rect width="226" height="300" fill="white"/>
</clipPath>
</defs>
</svg>
