<svg width="226" height="300" viewBox="0 0 226 300" fill="none" xmlns="http://www.w3.org/2000/svg">
<g clip-path="url(#clip0_5803_828)">
<path d="M154.123 1.73264C152.817 0.283815 151.026 -0.585938 149.17 -0.585938H38.0408C17.5346 -0.585938 0.608032 17.1685 0.608032 38.7612V260.065C0.608032 281.66 17.5346 299.415 38.0408 299.415H188.872C209.378 299.415 226.305 281.66 226.305 260.065V84.3408C226.305 82.4571 225.479 80.6467 224.309 79.2688L154.123 1.73264ZM156.118 24.9939L203.116 76.9502H172.565C163.482 76.9502 156.118 69.2689 156.118 59.7039V24.9939ZM188.872 284.922H38.0408C25.1742 284.922 14.3701 273.691 14.3701 260.065V38.7612C14.3701 25.2114 25.1046 13.9069 38.0408 13.9069H142.356V59.7039C142.356 77.3119 155.845 91.443 172.565 91.443H212.543V260.065C212.543 273.691 201.808 284.922 188.872 284.922Z" fill="#2E53D4"/>
<path d="M170.087 234.922H56.8257C53.0418 234.922 49.9447 238.182 49.9447 242.169C49.9447 246.154 53.0418 249.415 56.8257 249.415H170.157C173.94 249.415 177.038 246.154 177.038 242.169C177.038 238.182 173.94 234.922 170.087 234.922Z" fill="#2E53D4"/>
<path d="M118.342 194.342L109.19 184.703C106.506 181.879 102.172 181.879 99.4879 184.703C96.8037 187.53 96.8037 192.096 99.4879 194.921L108.71 204.632C115.865 212.096 125.223 215.792 134.582 215.792C143.941 215.792 153.297 212.023 160.454 204.559C174.63 189.487 174.56 164.994 160.454 150.067L151.302 140.428C148.618 137.602 144.284 137.602 141.6 140.428C138.916 143.255 138.916 147.819 141.6 150.646L150.752 160.284C159.559 169.561 159.559 184.85 150.752 194.271C141.737 203.618 127.288 203.618 118.342 194.342Z" fill="#2E53D4"/>
<path d="M75.7498 169.993C77.1255 171.442 78.8447 172.094 80.6334 172.094C82.4243 172.094 84.1435 171.371 85.5193 169.993C88.2035 167.166 88.2035 162.603 85.5193 159.776L76.2996 150.067C67.4908 140.79 67.4908 125.501 76.2996 116.08C85.1085 106.806 99.627 106.806 108.573 116.08L117.723 125.718C120.407 128.545 124.743 128.545 127.425 125.718C130.109 122.891 130.109 118.328 127.425 115.501L118.275 105.792C103.961 90.8639 80.703 90.9349 66.5279 105.863C52.3529 120.934 52.4225 145.427 66.5279 160.355L75.7498 169.993Z" fill="#2E53D4"/>
<path d="M96.7363 137.602C94.0521 140.428 94.0521 144.995 96.7363 147.819L120.407 172.747C121.783 174.198 123.502 174.85 125.293 174.85C127.082 174.85 128.801 174.124 130.179 172.747C132.861 169.922 132.861 165.356 130.179 162.529L106.508 137.602C103.824 134.777 99.4204 134.777 96.7363 137.602Z" fill="#2E53D4"/>
</g>
<defs>
<clipPath id="clip0_5803_828">
<rect width="226" height="300" fill="white"/>
</clipPath>
</defs>
</svg>
